<svg width="21" height="20" viewBox="0 0 21 20" fill="none" xmlns="http://www.w3.org/2000/svg">
<path fill-rule="evenodd" clip-rule="evenodd" d="M5.23974 7.91197H7.90525C7.89484 7.96304 7.88939 8.01576 7.88939 8.06957V12.0034C7.88939 12.0249 7.89027 12.0464 7.89199 12.0676C7.87233 12.0668 7.85257 12.0665 7.83272 12.0665H6.57503C6.48442 12.0665 6.39609 12.0739 6.31048 12.0882H5.23952C4.48098 12.0882 4.05169 11.7811 3.77871 11.3929C3.49924 10.9955 3.36038 10.4706 3.32793 10.0017C3.35997 9.53193 3.49882 9.00566 3.77893 8.60732C4.0519 8.21911 4.4812 7.91197 5.23974 7.91197ZM5.00034 13.655C3.83548 13.5886 3.01182 13.0378 2.49157 12.298C1.98605 11.5791 1.79188 10.7232 1.75411 10.0447L1.75022 10.0446L1.75195 10.0025L1.75 9.95565L1.75433 9.95549C1.7921 9.27698 1.98627 8.42114 2.49179 7.70223C3.04696 6.91272 3.94763 6.33847 5.23974 6.33847H8.03608C9.09323 6.33847 12.1679 5.9411 15.4996 2.51281C15.6496 2.35848 15.8744 2.18638 16.1766 2.11083C16.5869 2.00826 17.2248 1.95856 17.7964 2.29395C18.4311 2.66641 18.75 3.3676 18.75 4.27704V10.0733H18.7498V15.7232C18.7498 16.6326 18.4309 17.3338 17.7961 17.7063C17.2245 18.0416 16.5866 17.992 16.1764 17.8894C15.8742 17.8138 15.6495 17.6418 15.4995 17.4876C13.1428 15.0637 10.8782 14.1547 9.40622 13.8302V15.5333C9.40622 16.154 9.0413 16.7167 8.47457 16.9699L7.95821 17.2006C7.11703 17.5764 6.13436 17.1524 5.83076 16.2825L5.08942 14.1585C5.0307 13.9902 5.00219 13.8208 5.00034 13.655ZM6.58263 13.6617L7.31637 15.764L7.83272 15.5333V13.6617H6.58263Z" fill="#E9EAED"/>
</svg>
