<svg width="201" height="89" viewBox="0 0 201 89" fill="none" xmlns="http://www.w3.org/2000/svg">
<path d="M116.969 65.0617C115.962 65.0617 114.952 65.0547 113.945 65.0664C113.686 65.0687 113.422 65.1038 113.172 65.1645C112.779 65.258 112.44 65.1552 112.099 64.9706C111.732 64.7719 111.543 64.4892 111.55 64.0709C111.555 63.7718 111.508 63.4634 111.564 63.1759C111.725 62.3511 111.625 61.5542 111.405 60.7598C111.365 60.6172 111.347 60.4677 111.335 60.3181C111.258 59.5003 111.174 58.6847 111.118 57.8669C111.09 57.4579 111.097 57.0443 111.125 56.6354C111.155 56.2171 111.414 55.9624 111.807 55.8386C111.877 55.8152 111.952 55.7989 112.024 55.7895C113.681 55.5699 115.3 55.0768 116.997 55.1189C117.553 55.1329 118.119 55.0558 118.665 54.9459C119.736 54.7333 120.815 54.6585 121.897 54.6912C123.213 54.731 124.521 54.5908 125.792 54.3361C126.814 54.1304 127.835 53.9154 128.858 53.7145C129.884 53.5135 130.912 53.3336 131.945 53.177C132.574 53.0812 133.212 53.0999 133.843 53.2051C134.364 53.2915 134.882 53.2728 135.403 53.2051C136.369 53.0812 137.336 53.0345 138.301 53.2448C138.626 53.3172 138.969 53.3032 139.303 53.3289C139.528 53.3453 139.759 53.3289 139.972 53.3897C140.876 53.6374 141.107 53.6864 141.234 54.787C141.364 55.925 141.241 57.0069 141.019 58.1099C140.605 60.1569 140.236 62.2132 139.825 64.2602C139.708 64.8444 139.518 65.4075 139.271 65.959C139.028 66.4965 138.705 66.8797 138.154 67.118C137.866 67.2419 137.598 67.3447 137.299 67.2886C135.936 67.0269 134.541 67.1437 133.172 66.9404C132.588 66.854 132.324 67.0479 132.293 67.6578C132.233 68.8869 132.204 70.1207 132.211 71.3522C132.216 72.135 132.3 72.9178 132.179 73.7006C132.146 73.918 132.172 74.1446 132.179 74.3689C132.186 74.5559 132.249 74.7522 132.209 74.9251C131.933 76.0818 131.982 77.2969 131.56 78.4255C131.295 79.1289 131.2 79.865 131.111 80.6104C131.006 81.496 130.788 82.3699 130.604 83.2439C130.466 83.9005 130.272 84.5478 130.155 85.2091C130.043 85.8494 129.692 86.1999 129.069 86.319C128.739 86.3821 128.419 86.513 128.087 86.5434C126.489 86.6906 124.895 86.8939 123.283 86.8495C122.474 86.8261 122.248 86.6181 122.112 85.8096C121.72 83.4846 121.696 81.1315 121.617 78.783C121.572 77.4418 121.488 76.1028 121.254 74.7755C121.184 74.376 121.203 73.9553 121.205 73.5464C121.215 72.1654 121.224 70.7844 121.014 69.4127C120.99 69.2655 120.967 69.1089 120.997 68.9664C121.208 67.9943 120.927 67.0339 120.944 66.0665C120.946 65.9193 120.927 65.7674 120.899 65.6202C120.822 65.2136 120.638 65.043 120.212 65.0383C119.128 65.029 118.046 65.036 116.962 65.036C116.962 65.043 116.962 65.0523 116.962 65.0594L116.969 65.0617Z" fill="white"/>
<path d="M74.7627 57.1549C74.5384 58.0755 74.5618 59.0079 74.5945 59.9426C74.6506 61.5526 74.4379 63.1463 74.265 64.7399C74.2229 65.1115 74.1318 65.4947 74.1832 65.8546C74.4005 67.3501 74.1715 68.8362 74.0804 70.3177C74.029 71.1613 73.9799 72.0259 73.8093 72.8671C73.7509 73.1569 73.7229 73.4653 73.7579 73.7574C73.8561 74.5706 73.9986 75.3768 74.1084 76.19C74.1482 76.4844 74.1528 76.7835 74.1552 77.0826C74.1622 77.9051 74.1669 78.723 74.3258 79.5362C74.4122 79.9732 74.4146 80.4312 74.4029 80.8775C74.3748 82.1136 74.515 83.3311 74.6973 84.5532C74.8071 85.2869 74.6506 86.03 74.5291 86.7544C74.4543 87.2077 74.1225 87.5419 73.6574 87.6984C73.1971 87.8526 72.7391 88.0162 72.2834 88.1845C71.9259 88.3153 71.5801 88.3574 71.1945 88.2499C70.8791 88.1634 70.5285 88.1845 70.1944 88.1821C68.6638 88.1704 67.1309 88.1611 65.6004 88.1658C65.0208 88.1681 64.4974 88.0069 63.995 87.7381C63.6095 87.5302 63.3758 87.2311 63.3174 86.7777C63.1024 85.149 62.8196 83.5273 62.6654 81.894C62.5883 81.0901 62.7075 80.2606 62.7822 79.4474C62.8337 78.8866 62.8757 78.3351 62.7846 77.7743C62.6117 76.7251 62.8126 75.6899 62.9575 74.6594C63.0416 74.0729 63.086 73.4723 63.301 72.9045C63.4506 72.5073 63.4202 72.0913 63.315 71.6894C63.1141 70.9183 63.1164 70.1448 63.2309 69.362C63.28 69.0325 63.2776 68.689 63.2449 68.3572C63.1304 67.2426 62.9785 66.1326 62.8664 65.0203C62.7823 64.2048 62.7121 63.387 62.6771 62.5668C62.614 61.0455 62.5205 59.5196 62.5486 57.9984C62.5719 56.7366 62.7659 55.4771 62.8617 54.2152C62.9388 53.1824 63.5604 52.6006 64.453 52.2524C64.9391 52.0631 65.4578 51.9626 65.9719 52.0164C66.6332 51.979 67.2524 52.1566 67.8787 52.2524C68.6592 52.3692 69.4303 52.3832 70.2201 52.2968C71.1828 52.1916 72.1596 52.1426 73.113 52.4136C73.328 52.4744 73.5453 52.5398 73.7439 52.6356C74.1014 52.8062 74.3351 53.0889 74.3912 53.4932C74.5291 54.5284 74.6693 55.5635 74.7954 56.5987C74.8188 56.781 74.8071 56.9773 74.7627 57.1549Z" fill="white"/>
<path d="M200.475 65.7239C200.442 65.2706 200.369 64.829 200.159 64.4247C199.556 63.2657 199.157 62.0109 198.451 60.9009C198.192 60.492 198.058 60.0083 197.734 59.6367C196.895 58.6787 196.175 57.6365 195.423 56.613C194.717 55.6502 193.878 54.7786 192.616 54.5099C192.401 54.4655 192.182 54.372 192.002 54.2482C191.333 53.7855 190.574 53.6313 189.789 53.5425C189.046 53.456 188.303 53.3883 187.566 53.2691C186.312 53.0681 185.068 52.7924 183.788 52.8345C183.529 52.8438 183.253 52.8298 183.01 52.7527C182.148 52.477 181.248 52.4419 180.365 52.3017C178.918 52.075 177.467 52.047 176.011 52.2059C175.261 52.2877 174.89 52.6802 174.824 53.442C174.808 53.629 174.813 53.8159 174.806 54.0028C174.773 54.9352 174.789 55.8746 174.691 56.7999C174.586 57.8117 174.602 58.8119 174.691 59.819C174.806 61.0832 174.934 62.3497 174.967 63.6162C175.032 66.3011 175.039 68.9907 175.072 71.678H175.065C175.065 72.0892 175.067 72.4982 175.065 72.9094C175.049 74.5545 175.028 76.1972 175.016 77.8423C175.011 78.59 175.037 79.3355 175.018 80.0809C175.006 80.5903 175.294 81.0109 175.362 81.4876C175.434 82.0087 175.058 82.4784 175.172 83.0275C175.247 83.3874 175.203 83.7706 175.205 84.1445C175.21 84.8548 175.198 85.5652 175.217 86.2756C175.231 86.7546 175.394 87.1519 175.929 87.2851C176.544 87.4369 177.133 87.722 177.778 87.7174C179.082 87.7103 180.393 87.7524 181.687 87.6309C182.43 87.5608 183.173 87.5398 183.916 87.493C184.253 87.472 184.589 87.4813 184.926 87.4743C185.347 87.4673 185.643 87.2523 185.798 86.8808C185.956 86.5022 186.097 86.112 186.197 85.7148C186.599 84.1234 186.985 82.5275 187.375 80.9338C187.426 80.7212 187.41 80.4781 187.634 80.3449C187.763 80.2678 187.994 80.4921 188.146 80.8497C188.232 81.0576 188.303 81.2703 188.377 81.4806C188.91 82.9948 189.438 84.5113 189.976 86.0232C190.076 86.306 190.205 86.5794 190.434 86.785C190.878 87.1869 191.394 87.3598 191.985 87.2383C193.383 86.9462 194.68 86.362 195.974 85.7895C196.269 85.6587 196.406 85.3759 196.378 85.0465C196.364 84.8642 196.32 84.6796 196.273 84.4997C195.99 83.4551 195.705 82.413 195.42 81.3708C195.084 80.1486 194.738 78.9312 194.579 77.667C194.514 77.1623 194.635 76.8281 195.074 76.5337C196.032 75.8864 196.944 75.1667 197.897 74.5101C198.509 74.0871 198.907 73.552 199.103 72.8253C199.423 71.6359 199.806 70.4652 200.133 69.2781C200.451 68.1168 200.556 66.9274 200.472 65.7239H200.475ZM188.064 66.0698C187.688 66.3712 187.298 66.6797 186.868 66.883C186.197 67.2008 185.491 67.4485 184.788 67.6915C184.55 67.7756 184.276 67.7896 184.019 67.7779C183.697 67.7616 183.451 67.584 183.386 67.2475C183.321 66.9204 183.241 66.5862 183.239 66.2567C183.232 64.8383 183.071 63.4316 182.958 62.546C182.828 60.9687 182.97 60.8074 183.98 60.9266C184.316 60.9663 184.641 60.9593 184.977 60.9313C186.26 60.8215 187.265 61.4267 188.174 62.2422C188.34 62.3894 188.452 62.5904 188.48 62.824C188.553 63.4152 188.625 64.0041 188.695 64.5953C188.765 65.2052 188.527 65.7006 188.064 66.0698Z" fill="white"/>
<path d="M170.84 79.59C170.777 81.5645 170.709 83.5391 170.632 85.5136C170.623 85.8104 170.595 86.1141 170.513 86.3969C170.317 87.0839 170.013 87.3246 169.312 87.3503C167.417 87.4204 165.519 87.4788 163.622 87.5396V87.4835C162.764 87.4835 161.905 87.5022 161.049 87.4788C159.862 87.4461 158.675 87.3807 157.488 87.3386C157.306 87.3316 157.114 87.3479 156.939 87.3994C156.642 87.4835 156.352 87.4484 156.053 87.4274C155.273 87.369 154.49 87.3363 153.707 87.2989C153.558 87.2919 153.406 87.2802 153.261 87.3059C151.705 87.591 150.132 87.4554 148.569 87.4998C148.235 87.5092 147.9 87.5536 147.569 87.5933C147.384 87.6143 147.202 87.6774 147.017 87.6844C145.959 87.7288 145.433 87.3035 145.258 86.259C145.216 86.0043 145.209 85.7403 145.202 85.4786C145.18 84.5439 145.157 83.6115 145.026 82.6838C144.973 82.3193 144.951 81.929 145.017 81.5692C145.391 79.4895 145.23 77.4051 145.085 75.3231C145.059 74.9398 145.162 74.5823 145.164 74.2108C145.173 72.5283 145.211 70.8482 145.19 69.1681C145.18 68.5395 145.026 67.9133 144.966 67.2823C144.835 65.9037 144.898 64.518 144.968 63.1416C145.085 60.7955 145.248 58.4541 145.197 56.101C145.183 55.4678 145.183 54.8392 145.045 54.2083C144.919 53.6194 144.949 53.0189 145.3 52.4791C145.587 52.0328 145.942 51.7757 146.51 51.8809C146.84 51.9416 147.183 51.9767 147.513 51.9463C149.529 51.757 151.543 51.9393 153.551 52.0491C155.303 52.1449 157.053 52.222 158.808 52.2384C159.03 52.2407 159.271 52.2454 159.472 52.3225C160.818 52.8506 162.225 52.895 163.638 52.8763C164.209 52.8693 164.748 53.0072 165.288 53.1521C165.702 53.2642 165.933 53.5423 165.928 53.9653C165.914 55.1547 166.05 56.3604 165.664 57.5241C165.534 57.9167 165.473 58.3186 165.463 58.7345C165.459 58.9565 165.433 59.1832 165.372 59.3958C165.218 59.9216 164.954 60.1413 164.4 60.1436C163.947 60.1459 163.51 60.1716 163.071 60.2931C162.86 60.3516 162.622 60.3539 162.405 60.3282C160.961 60.16 159.5 60.2511 158.058 60.0268C157.584 59.9543 157.093 59.973 156.609 59.9754C155.663 59.9754 154.534 60.7955 154.397 61.7209C154.359 61.9849 154.301 62.2326 154.408 62.4873C154.555 62.8355 154.614 63.1907 154.586 63.5786C154.558 63.9408 154.766 64.2189 155.116 64.3544C155.324 64.4362 155.537 64.5156 155.757 64.553C156.628 64.7026 157.481 64.9456 158.399 64.8241C159.056 64.7376 159.741 64.8521 160.39 65.0508C161.131 65.2774 161.376 65.6957 161.243 66.4925C161.066 67.5581 160.879 68.6213 160.692 69.6845C160.659 69.8668 160.589 70.042 160.552 70.2266C160.43 70.8108 160.04 71.1707 159.491 71.2478C158.388 71.402 157.273 71.6474 156.168 71.2712C155.747 71.1286 155.369 71.1683 154.974 71.3366C154.56 71.5118 154.273 71.8016 154.228 72.2409C154.135 73.1686 154.048 74.0986 154.03 75.0286C154.016 75.7086 154.336 75.982 155.016 75.9423C156.614 75.8465 158.21 75.7227 159.808 75.6082C159.956 75.5988 160.105 75.5778 160.255 75.5731C162.306 75.4866 164.358 75.3815 166.41 75.3277C167.492 75.2997 168.576 75.3792 169.658 75.3698C170.223 75.3651 170.422 75.4633 170.553 76.1386C170.7 76.905 170.761 77.6902 170.833 78.4683C170.868 78.8399 170.854 79.2161 170.84 79.59Z" fill="white"/>
<path d="M107.9 55.427C107.685 56.6 107.549 57.7918 107.43 58.9788C107.374 59.5397 107.213 60.0748 107.136 60.6262C106.935 62.068 106.739 63.5098 106.666 64.9656C106.647 65.3722 106.531 65.7741 106.453 66.176C106.239 67.2766 106.045 68.3772 106.045 69.5082C106.045 70.4078 105.766 71.2724 105.617 72.1534C105.502 72.817 105.4 73.476 105.337 74.149C105.241 75.1468 105.115 76.1422 104.804 77.112C104.624 77.6751 104.568 78.2803 104.47 78.8692C104.381 79.423 104.315 79.9791 104.229 80.5306C103.939 82.3743 103.647 84.2203 103.353 86.0617C103.17 87.1973 102.801 87.6437 101.658 87.8306C100.518 88.0152 99.3615 88.1017 98.2071 88.1975C97.5038 88.2535 96.7887 88.1928 96.09 88.361C95.84 88.4194 95.5666 88.3797 95.3072 88.4148C94.5688 88.5082 94.0524 88.1437 93.7603 87.5362C93.1154 86.1902 92.3139 84.919 91.8325 83.4983C91.5194 82.5729 91.1245 81.6966 90.6454 80.8461C90.2645 80.1684 89.9888 79.4393 89.7481 78.6846C89.4373 77.6985 89.0962 76.696 88.5143 75.8151C88.3905 75.6281 88.2573 75.4459 88.1077 75.2823C87.8974 75.0556 87.5679 75.1351 87.4932 75.4225C87.4558 75.565 87.4254 75.7146 87.4207 75.8618C87.4137 76.1235 87.3997 76.3876 87.4394 76.6446C87.7432 78.7266 87.6264 80.8227 87.6661 82.9118C87.6871 84.1082 87.7128 85.3046 87.4324 86.4823C87.2385 87.3048 87.0983 87.438 86.229 87.5221C86.1542 87.5315 86.0794 87.5432 86.0047 87.5408C84.8456 87.5128 83.6936 87.5922 82.5463 87.7441C82.3266 87.7745 82.0976 87.7628 81.878 87.7324C81.5508 87.688 81.3242 87.4941 81.2541 87.167C80.9176 85.5663 80.4362 83.996 80.5647 82.3135C80.6185 81.6312 80.4058 80.9138 80.2306 80.2338C79.9876 79.2828 79.9198 78.3481 79.9712 77.3573C80.0343 76.1422 80.0016 74.9107 79.7352 73.684C79.4361 72.3053 79.1533 70.9126 79.2164 69.4685C79.2468 68.7745 79.0201 68.0711 78.929 67.3677C78.7281 65.8512 78.5014 64.337 78.5738 62.7994C78.5832 62.5751 78.6369 62.3274 78.5598 62.1334C78.242 61.3366 78.4406 60.5024 78.3378 59.6915C78.2724 59.1938 78.4476 59.0536 78.9594 58.9368C80.4502 58.6003 81.9668 58.3666 83.4296 57.911C84.0301 57.724 84.5208 57.8222 84.9461 58.3035C85.3153 58.7241 85.7313 59.0957 85.9346 59.6471C86.0911 60.0678 86.3996 60.4089 86.7057 60.7384C86.9861 61.0422 87.2712 61.3389 87.5399 61.6474C88.3998 62.6358 89.1593 63.6593 89.6149 64.9352C90.2061 66.5849 90.9375 68.1833 91.5591 69.826C91.8605 70.6252 92.3162 71.3682 92.7111 72.13C92.7765 72.2609 92.877 72.3847 92.9892 72.4759C93.064 72.5343 93.2042 72.5717 93.2883 72.5436C93.3771 72.5132 93.4752 72.4011 93.4963 72.3099C93.5453 72.0926 93.5687 71.8683 93.571 71.6463C93.578 70.749 93.5734 69.8517 93.5734 69.2325C93.6762 67.8 93.5313 66.6363 93.7253 65.4843C93.7556 65.3044 93.744 65.1081 93.7112 64.9258C93.5757 64.2225 93.6014 63.5121 93.5991 62.8018C93.5967 62.2035 93.5967 61.61 93.4565 61.0212C93.3864 60.7337 93.3958 60.4253 93.3958 60.1285C93.3888 58.1096 93.3701 56.0906 93.3958 54.074C93.4051 53.366 93.515 52.6603 93.6131 51.9569C93.6762 51.4989 93.8842 51.3307 94.3702 51.2863C94.8562 51.2396 95.3376 51.2653 95.819 51.3634C96.1485 51.4288 96.4803 51.4732 96.8144 51.5106C97.5505 51.5924 98.2842 51.5877 99.0273 51.5667C99.9877 51.5387 100.953 51.77 101.92 51.8518C103.593 51.9967 105.234 52.4126 106.923 52.436C107.711 52.4453 108.005 52.7444 108.024 53.5319C108.038 54.1652 108.014 54.7914 107.9 55.427Z" fill="white"/>
<path d="M59.0492 83.827C59.0036 83.6151 58.9238 83.4101 58.8714 83.1982C58.6778 82.4213 58.4477 81.6581 58.2882 80.8698C57.9988 79.4458 57.8553 77.9991 57.4862 76.5865C56.944 74.5041 56.379 72.4422 55.5291 70.4578C55.0849 69.4257 54.6497 68.3823 54.3399 67.291C53.866 65.6073 53.2645 63.9714 52.4762 62.3994C52.0365 61.5245 51.6902 60.5904 51.4282 59.6495C51.1981 58.8247 50.854 58.0843 50.3893 57.3825C50.2503 57.1706 50.125 56.9474 50.0156 56.7173C49.5167 55.6647 49.0177 54.6144 48.6873 53.4912C48.2795 52.0945 47.4206 51.7414 46.3247 51.9328C45.3473 52.1037 44.3677 52.0946 43.3857 52.1196C42.9118 52.1196 42.4379 52.1037 41.964 52.1242C40.6722 52.1743 39.4624 52.5229 38.3119 53.113C37.9063 53.3203 37.74 53.6028 37.6853 54.0471C37.5236 55.348 37.2228 56.6352 36.7763 57.8564C36.25 59.2963 35.9652 60.7977 35.4936 62.2513C35.0812 63.5272 34.8853 64.8714 34.5731 66.1791C34.236 67.5962 33.9352 69.0248 33.5092 70.4123C32.9943 72.0891 32.7026 73.8115 32.2629 75.502C32.37 76.4339 32.0032 77.2609 31.7321 78.1221C31.3379 79.3729 31.1807 80.6807 30.9256 81.9656C30.7592 82.8132 30.6932 83.6766 30.4585 84.5196C30.2443 85.2851 30.1327 86.0894 30.0552 86.8845C29.9823 87.6227 30.3901 88.0396 31.1352 88.0966C31.3516 88.1125 31.5771 88.1034 31.7868 88.0579C32.7209 87.8551 33.6664 87.8596 34.6142 87.8528C35.0493 87.8483 35.4845 87.7617 35.9174 87.7571C36.9426 87.7503 37.3755 87.0736 37.6876 86.2489C37.7514 86.0803 37.7605 85.8935 37.7992 85.7157C38.0271 84.6859 38.2002 83.6425 38.5557 82.6423C38.665 82.337 38.6445 81.9839 38.7653 81.6854C38.9179 81.3095 38.4827 80.872 38.7402 80.6624C39.0865 80.3845 39.2391 80.0473 39.3872 79.6873C39.6401 79.0744 40.0981 78.7782 40.736 78.7509C41.7157 78.7076 42.6976 78.6826 43.6773 78.6484C43.9052 78.6393 44.133 78.6689 44.2697 78.8603C44.7345 79.5119 45.3268 80.1316 45.4362 80.9313C45.5592 81.8016 45.8053 82.6377 45.9442 83.4967C46.0331 84.0412 46.1675 84.5584 46.3703 85.0687C46.5845 85.6109 46.7599 86.1669 46.9558 86.7159C47.0902 87.0919 47.211 87.4769 47.375 87.8414C47.6211 88.3859 48.0563 88.6115 48.6144 88.4725C49.6374 88.2173 50.6649 87.9713 51.6697 87.6569C52.9546 87.2559 54.2419 86.8663 55.5428 86.5154C56.4177 86.2808 57.2812 85.9823 58.1219 85.6474C59.0036 85.2943 59.2451 84.7634 59.0492 83.827ZM44.8005 61.946C44.7481 62.6295 44.7026 63.3221 44.4884 63.9874C44.2264 64.803 44.0054 64.9898 43.1761 65.0149C43.0303 65.0195 42.8867 65.0172 42.5359 65.0172C41.8729 65.0696 41.1005 64.7142 40.3191 64.4317C39.8588 64.2653 39.7016 63.8621 39.7814 63.3609C39.8292 63.0647 39.9614 62.8072 40.1209 62.5634C40.6585 61.741 41.1826 60.9117 41.7407 60.1028C42.1896 59.4512 42.504 59.4148 43.1943 59.8545C43.4404 60.0094 43.6773 60.1826 43.9348 60.3147C44.6091 60.6588 44.8529 61.258 44.8005 61.946Z" fill="white"/>
<path d="M29.3624 59.6418C28.9614 58.4092 28.3166 57.3133 27.0317 56.7551C26.7013 56.6116 26.396 56.3952 26.1044 56.1787C25.6054 55.8096 25.0951 55.4611 24.5346 55.1899C23.621 54.7411 22.6983 54.3082 21.7961 53.8389C20.7845 53.3126 19.7456 52.9025 18.6042 52.7681C18.3535 52.7385 18.1052 52.661 17.8614 52.5881C17.1551 52.3785 16.4352 52.3101 15.6993 52.3443C15.2277 52.3648 14.7515 52.383 14.2799 52.3694C13.4779 52.3489 12.6782 52.317 11.9059 52.604C11.7738 52.6519 11.6143 52.6678 11.473 52.645C10.8077 52.5448 10.1653 52.6883 9.52733 52.8319C8.95319 52.9595 8.37906 53.0369 7.79125 52.9868C7.12826 52.9276 6.48577 53.046 5.84556 53.2055C5.17346 53.3718 4.4968 53.5176 3.82697 53.684C3.54673 53.7546 3.26194 53.8343 2.99994 53.9528C2.67642 54.1009 2.50554 54.3766 2.5101 54.7411C2.51238 54.8869 2.52377 55.0327 2.53516 55.1763C2.63996 56.5546 2.5101 57.9421 2.71059 59.316C2.7311 59.4595 2.74932 59.6144 2.71515 59.7511C2.542 60.4027 2.65591 61.0543 2.69009 61.7059C2.70376 61.9611 2.73337 62.2186 2.70603 62.4692C2.59895 63.4466 2.58528 64.4194 2.6673 65.4059C2.7516 66.4198 2.68781 67.445 2.67642 68.4657C2.6673 69.4112 2.63085 70.3613 2.77666 71.3022C2.96348 72.4938 2.9407 73.6967 2.95209 74.8951C2.95437 75.3326 2.92247 75.7769 2.98855 76.2029C3.10018 76.9274 3.10702 77.6542 3.13664 78.3833C3.15259 78.7455 3.15942 79.1123 3.22093 79.47C3.2984 79.9074 3.29156 80.3335 3.22093 80.7709C3.11385 81.4225 3.1298 82.0741 3.22549 82.7303C3.36903 83.7396 3.48294 84.7512 3.60141 85.7627C3.67432 86.3779 3.72217 86.9953 3.79963 87.6105C3.87937 88.2233 4.2439 88.5127 4.84538 88.4557C4.98891 88.4443 5.12789 88.3805 5.2737 88.3691C6.10757 88.3008 6.95055 88.2074 7.77986 88.3555C8.79827 88.5377 9.80528 88.5149 10.8237 88.3919C11.5778 88.3008 12.3206 88.1527 13.102 88.2689C13.7696 88.3669 14.2548 87.8702 14.3551 87.1798C14.5829 85.6329 14.7811 84.0813 15.0409 82.5389C15.2915 81.0671 15.6082 79.609 15.8838 78.144C15.9681 77.7043 16.1869 77.4241 16.6243 77.2965C17.0093 77.1871 17.383 77.0413 17.7589 76.9001C18.8138 76.5036 19.8458 76.0343 20.9258 75.7199C22.2609 75.3326 23.5048 74.7243 24.8012 74.2458C25.2067 74.0977 25.5735 73.8426 25.9631 73.6421C26.2274 73.5031 26.4553 73.314 26.6193 73.0748C27.2595 72.1452 27.8815 71.2088 28.1412 70.0765C28.3189 69.2973 28.5103 68.509 28.8133 67.7731C29.2371 66.7501 29.4968 65.7021 29.6153 64.6108C29.6654 64.1415 29.6814 63.6676 29.736 63.196C29.8773 61.9816 29.7338 60.7832 29.3624 59.6418ZM15.337 64.8569C15.2801 65.1963 15.0887 65.4629 14.8039 65.6497C14.0384 66.1555 13.2205 66.5542 12.3092 66.7114C11.5778 66.8367 11.2475 66.6112 11.0538 65.8593C10.8624 65.1211 10.6756 64.3761 10.6779 63.6061C10.6802 62.8679 10.4455 62.1707 10.3156 61.4576C10.2496 61.0976 10.1607 60.7445 10.163 60.3777C10.1744 60.2319 10.1675 60.0838 10.1994 59.9448C10.2518 59.7056 10.4204 59.562 10.6597 59.5506C10.8374 59.5415 11.0265 59.5598 11.1973 59.6099C12.0016 59.8423 12.8127 60.0428 13.5098 60.5531C13.8288 60.7878 14.2002 60.9541 14.5487 61.1523C15.0249 61.4211 15.2619 61.8312 15.3849 62.3644C15.5831 63.2073 15.476 64.0298 15.337 64.8569Z" fill="white"/>
<path d="M199.111 28.5442C199.101 28.8059 199.017 29.0676 199.043 29.3247C199.181 30.7431 198.91 32.1545 198.97 33.5705C198.973 33.6453 198.97 33.7201 198.961 33.7948C198.882 34.8394 198.737 34.9936 197.715 35.1548C196.498 35.3488 195.285 35.524 194.047 35.5731C193.306 35.6035 192.565 35.6923 191.82 35.7273C191.273 35.7554 190.827 35.3535 190.292 35.482C189.815 35.5965 189.338 35.5754 188.85 35.5614C187.207 35.5147 185.562 35.5007 183.919 35.5077C182.202 35.5147 180.484 35.5568 178.767 35.5988C178.358 35.6082 177.949 35.6713 177.542 35.7157C176.409 35.8348 175.327 35.5427 174.238 35.302C173.946 35.239 173.799 35.052 173.694 34.7973C173.561 34.4772 173.549 34.143 173.544 33.8065C173.53 32.984 173.472 32.1661 173.371 31.3483C173.28 30.6122 173.287 29.8668 173.437 29.119C173.565 28.4647 173.607 27.7824 173.6 27.1141C173.591 25.9574 173.542 24.8007 173.453 23.6487C173.418 23.1931 173.497 22.7561 173.5 22.3098C173.507 20.7395 173.528 19.1715 173.54 17.6036C173.542 17.3419 173.556 17.0708 173.5 16.8208C173.077 14.935 173.229 13.0259 173.315 11.1285C173.42 8.81975 173.577 6.51339 173.53 4.20001C173.519 3.60181 173.519 3.01061 173.392 2.41708C173.285 1.91001 173.25 1.3819 173.549 0.893524C173.899 0.321022 174.266 -0.0808976 175.068 0.0593069C175.755 0.178481 176.479 0.085011 177.19 0.085011C179.246 -0.0318261 181.286 0.206522 183.333 0.35841C184.375 0.435522 185.424 0.419165 186.471 0.423839C187.149 0.428512 187.794 0.547686 188.455 0.708921C189.462 0.956616 190.5 1.11084 191.549 1.08046C192.262 1.06177 192.963 1.11551 193.65 1.33984C194.07 1.47537 194.278 1.74877 194.276 2.16004C194.271 3.45693 194.432 4.76083 193.932 6.02735C193.687 6.64425 193.692 7.3476 193.407 7.96684C193.168 8.49027 192.981 8.66786 192.481 8.57673C191.072 8.32203 189.649 8.44821 188.235 8.36643C187.193 8.30801 186.153 8.22388 185.111 8.1678C184.307 8.1234 183.648 8.4412 183.16 9.06978C182.753 9.58854 182.499 10.1657 182.821 10.8294C182.961 11.1168 182.917 11.4135 182.94 11.708C182.98 12.222 183.26 12.5258 183.758 12.6403C183.938 12.68 184.12 12.7455 184.303 12.7572C185.27 12.8226 186.219 13.0633 187.198 13.0095C187.724 12.9792 188.242 13.0539 188.742 13.2245C189.313 13.4185 189.535 13.6965 189.539 14.2971C189.542 14.6686 189.49 15.0425 189.432 15.4094C189.322 16.108 189.189 16.8044 189.067 17.5007C189.042 17.648 189.037 17.7999 188.999 17.9424C188.731 19.0126 188.247 19.4636 187.132 19.5571C186.207 19.6365 185.282 19.6926 184.352 19.4426C183.373 19.1785 182.608 19.7043 182.494 20.6857C182.398 21.5013 182.363 22.3261 182.365 23.1463C182.365 23.7959 182.611 24.0156 183.263 24.0203C184.345 24.0296 185.424 24.039 186.506 23.9128C187.691 23.7772 188.892 23.7772 190.079 23.6651C191.31 23.5506 192.54 23.5389 193.771 23.5342C194.332 23.5319 194.893 23.5225 195.444 23.4057C196.384 23.2071 197.302 23.4618 198.227 23.5576C198.463 23.5833 198.624 23.7328 198.758 23.9291C199.059 24.3801 199.211 24.8708 199.199 25.4106C199.174 26.4551 199.146 27.4997 199.111 28.5442Z" fill="white"/>
<path d="M22.2644 19.9646C22.3655 20.8331 22.315 21.918 22.2235 22.9837C22.1009 24.4296 22.007 25.8946 21.4658 27.2754C21.3407 27.5954 21.1987 27.937 21.1963 28.269C21.1867 29.4766 20.7561 30.6073 20.6069 31.7885C20.5155 32.5102 20.311 33.2174 20.2076 33.9391C20.1378 34.4203 19.9021 34.6945 19.4618 34.8605C18.6247 35.1756 17.749 35.332 16.8709 35.3922C15.608 35.4788 14.3546 35.6808 13.0796 35.6496C12.1655 35.6255 11.961 35.4595 11.8311 34.5357C11.4678 31.9039 11.3692 29.2577 11.3187 26.6067C11.297 25.4544 11.3355 24.2996 10.9747 23.1786C10.8833 22.8947 10.9001 22.5676 10.9073 22.262C10.941 21.0688 10.8712 19.8828 10.7967 18.6945C10.7076 17.2775 10.698 15.8582 10.6403 14.4388C10.6283 14.1357 10.5946 13.8254 10.52 13.5319C10.4334 13.1903 10.176 13.0315 9.82236 13.0724C9.48076 13.1109 9.14156 13.2312 8.80236 13.2336C7.11118 13.248 5.41759 13.2504 3.72641 13.2216C3.30542 13.2144 2.88684 13.1759 2.46344 13.2312C2.23971 13.2601 1.99915 13.2552 1.77783 13.2095C1.24858 13.1013 0.998391 12.8054 0.967117 12.2449C0.935844 11.7084 0.923815 11.1671 0.933438 10.6307C0.957495 9.20652 0.673627 7.80642 0.582211 6.39189C0.548532 5.85302 0.485985 5.31416 0.502825 4.7801C0.526881 4.03194 0.880514 3.61816 1.61183 3.5484C2.34556 3.47623 3.05042 3.31505 3.76009 3.14665C4.13056 3.05764 4.52269 3.01915 4.90278 3.02156C6.17538 3.02637 7.42391 2.80024 8.68208 2.65349C9.59623 2.54524 10.5272 2.59816 11.4462 2.5284C12.8631 2.42255 14.2776 2.2758 15.6922 2.14349C17.5493 1.46991 19.546 1.49156 21.4441 1.00802C21.8098 0.914199 22.2067 0.928633 22.5916 0.923822C24.1288 0.909388 25.6685 0.911794 27.2057 0.894954C28.3267 0.882926 29.4213 1.13071 30.5303 1.23415C31.2111 1.2967 31.3458 1.63109 31.5118 2.30227C31.8678 3.74566 31.5359 5.12892 31.2087 6.50015C30.7709 8.33326 30.4702 10.1928 30.1261 12.0428C30.0059 12.6875 29.8182 13.3058 29.621 13.9288C29.3924 14.6577 28.7285 14.9536 28.2786 15.4564C28.1824 15.5623 27.9033 15.5791 27.7349 15.5334C26.6091 15.2303 25.4423 15.3025 24.302 15.1774C22.3751 14.9657 22.3174 14.9103 22.2668 16.871C22.2404 17.8308 22.262 18.7931 22.262 19.9646H22.2644Z" fill="white"/>
<path d="M159.711 9.74919C159.667 11.6209 159.856 13.4763 160.066 15.3317C160.197 16.4813 160.211 17.631 160.038 18.7924C159.847 20.0846 159.931 21.4002 159.959 22.7064C159.959 22.8162 159.994 22.9284 160.026 23.0336C160.125 23.356 160.347 23.4962 160.711 23.4635C160.858 23.4495 161.006 23.4168 161.153 23.3887C162.695 23.0803 164.258 22.9635 165.822 22.856C166.85 22.7835 167.824 23.0523 168.789 23.3116C169.619 23.5336 169.888 24.0664 169.764 24.9474C169.451 27.1649 169.243 29.3942 169.084 31.6281C168.997 32.8596 168.679 34.0443 168.273 35.208C168.165 35.5164 167.981 35.7291 167.647 35.7688C166.983 35.8459 166.333 35.9838 165.646 35.8553C164.878 35.7127 164.095 35.7361 163.305 35.8553C162.609 35.9604 161.889 35.9464 161.181 35.9557C158.638 35.9908 156.112 35.7408 153.579 35.5819C153.357 35.5678 153.133 35.5772 152.909 35.5772C151.479 35.5772 150.53 34.6752 150.453 33.2334C150.434 32.897 150.436 32.5605 150.441 32.224C150.465 30.5439 150.31 28.8707 150.205 27.1976C150.128 25.9708 150.205 24.7347 149.845 23.5313C149.691 23.0195 149.785 22.4914 149.964 21.989C150.135 21.5123 150.13 21.0403 149.96 20.566C149.808 20.1407 149.721 19.6967 149.733 19.2457C149.761 18.1498 149.546 17.0912 149.263 16.0444C149.123 15.5326 149.086 15.0185 149.083 14.4928C149.079 12.142 148.873 9.80059 148.647 7.46385C148.495 5.90758 148.256 4.35832 148.053 2.80439C147.922 1.80426 148.413 1.17801 149.446 1.08922C150.45 1.00276 151.455 0.937331 152.462 0.888259C153.766 0.825167 155.07 0.766748 156.374 0.750391C157.005 0.743381 157.638 0.832177 158.269 0.888259C158.655 0.920973 158.865 1.16633 158.968 1.51684C158.998 1.62433 159.012 1.7365 159.026 1.84632C159.267 3.95874 159.648 6.0548 159.706 8.18357C159.72 8.707 159.706 9.23043 159.706 9.75152L159.711 9.74919ZM167.408 31.9272L167.415 31.8641L167.352 31.8898L167.408 31.9272Z" fill="white"/>
<path d="M118.624 5.72621C118.624 7.81526 118.376 9.89496 118.385 11.9887C118.388 12.8369 118.264 13.7015 117.991 14.524C117.92 14.7343 117.804 14.9727 117.843 15.1713C118.07 16.3327 117.523 17.3655 117.325 18.4544C117.205 19.1134 116.983 19.7513 116.818 20.4033C116.764 20.6206 116.689 20.8543 116.719 21.0646C116.89 22.1769 116.556 23.2074 116.236 24.2402C115.904 25.3081 115.516 26.3596 115.2 27.4299C114.824 28.7057 114.144 29.8204 113.375 30.8719C112.695 31.8042 112.051 32.7763 111.102 33.4797C110.562 33.8793 110.057 34.3396 109.478 34.6691C108.59 35.1715 107.606 35.5314 106.585 35.2182C105.019 34.7345 103.423 34.3186 101.956 33.5545C101.855 33.5031 101.739 33.4727 101.657 33.4026C100.68 32.566 99.4532 32.1571 98.3876 31.4724C97.6048 30.9677 96.829 30.4489 96.0626 29.9208C95.3662 29.4441 94.9106 28.7852 94.539 28.0257C93.6954 26.3059 93.186 24.4692 92.6369 22.6536C92.1836 21.1581 91.9639 19.5924 91.6298 18.0595C91.5643 17.7581 91.5713 17.4637 91.6298 17.1692C91.7466 16.5734 91.6858 15.9868 91.5971 15.3933C91.3891 13.9843 91.3914 12.5705 91.5059 11.1521C91.5246 10.9301 91.5713 10.7011 91.541 10.4838C91.3166 8.8481 91.5012 7.19602 91.3447 5.5603C91.3377 5.48552 91.3237 5.41075 91.3283 5.33597C91.3447 4.85227 91.5667 4.61158 92.0457 4.49007C92.8846 4.27977 93.7328 4.20966 94.5951 4.22368C95.3055 4.23303 96.0135 4.22836 96.7239 4.23069C97.2169 4.23303 97.6843 4.36389 98.1399 4.53681C98.647 4.72842 98.9414 5.06257 98.9111 5.63508C98.8713 6.42022 98.9391 7.19836 99.0676 7.97649C99.2405 9.04205 99.355 10.1193 99.4929 11.1918C99.5303 11.4863 99.6027 11.7901 99.5747 12.0821C99.4462 13.3931 99.6541 14.6876 99.778 15.9822C99.8972 17.2487 100.161 18.4942 100.993 19.5293C101.706 20.415 102.631 20.7912 103.757 20.6697C104.148 20.6276 104.505 20.4687 104.704 20.1346C105.522 18.7582 106.634 17.5712 107.277 16.078C107.538 15.4681 107.639 14.8605 107.534 14.2226C107.426 13.5543 107.428 12.8977 107.508 12.22C107.599 11.4466 107.564 10.6544 107.552 9.86925C107.522 7.85498 107.517 5.84071 107.65 3.82644C107.672 3.49462 107.606 3.15579 107.604 2.82164C107.604 2.52487 107.592 2.21876 107.655 1.93134C107.746 1.50839 107.985 1.20695 108.45 1.09245C109.038 0.947572 109.63 0.886816 110.226 0.879806C111.235 0.868122 112.242 0.875133 113.249 0.875133V0.917194C114.259 0.917194 115.268 0.917194 116.275 0.919531C116.5 0.919531 116.726 0.907847 116.948 0.938225C118.04 1.09712 118.558 1.59952 118.619 2.70013C118.673 3.70493 118.624 4.71674 118.624 5.72621Z" fill="white"/>
<path d="M146.2 21.4509C145.968 19.7778 145.466 18.1748 144.459 16.7751C143.889 15.9852 143.297 15.2165 142.592 14.5435C142.218 14.1906 142.15 13.8284 142.365 13.3401C142.8 12.3516 143.171 11.3328 143.578 10.3327C143.695 10.0452 143.737 9.76484 143.692 9.45872C143.44 7.74823 142.687 6.36254 141.157 5.45822C140.582 5.11706 139.998 4.78758 139.517 4.2992C138.061 2.82004 136.252 1.96479 134.285 1.40865C133.497 1.18666 132.682 1.0745 131.908 0.782403C131.569 0.653882 131.174 0.632852 130.805 0.639862C130.172 0.649209 129.536 0.700617 128.908 0.770719C128.312 0.836148 127.718 0.894567 127.12 0.845495C125.732 0.735668 124.36 0.857179 122.993 1.0745C122.316 1.18432 122.176 1.33387 122.169 2.03256C122.159 3.07708 122.185 4.12394 122.199 5.16847C122.208 5.83911 122.297 6.51677 122.227 7.17806C122.098 8.41186 122.213 9.64099 122.19 10.8725C122.178 11.5338 122.257 12.2044 122.206 12.875C122.185 13.1321 122.239 13.3938 122.262 13.6532C122.299 14.0995 122.367 14.5435 122.374 14.9898C122.398 16.3334 122.398 17.6794 122.405 19.0253C122.407 19.6212 122.47 20.2147 122.51 20.8106C122.596 22.1846 122.769 23.5633 122.447 24.935C122.395 25.1499 122.398 25.386 122.426 25.6056C122.664 27.4914 122.926 29.3724 123.157 31.2605C123.271 32.2069 123.832 32.8098 124.599 33.2701C124.788 33.3846 125.001 33.4804 125.213 33.5342C126.223 33.7912 127.197 34.1931 128.263 34.1931C128.524 34.1931 128.791 34.2142 129.043 34.2702C130.434 34.5904 131.847 34.6815 133.268 34.6955C133.677 34.6955 134.091 34.6698 134.497 34.7002C135.257 34.7586 135.981 34.6558 136.703 34.4175C137.271 34.2282 137.871 34.1651 138.474 34.1978C139.358 34.2445 140.171 33.9875 140.972 33.6627C141.356 33.5061 141.704 33.2935 141.975 32.9687C142.356 32.5083 142.779 32.0807 143.134 31.6017C143.646 30.9147 144.251 30.2534 144.569 29.4799C145.277 27.7648 146.059 26.0473 146.031 24.1218C146.029 23.9746 146.08 23.8274 146.09 23.6778C146.139 22.9347 146.302 22.1753 146.2 21.4509ZM129.532 9.18533C129.618 8.93997 129.758 8.70629 129.805 8.45626C129.915 7.85806 130.413 7.64541 130.838 7.365C130.999 7.25751 131.2 7.31593 131.368 7.41174C132.305 7.95153 133.177 8.57544 133.857 9.42367C134.355 10.0452 134.121 11.2066 133.39 11.5431C132.824 11.8048 132.191 11.917 131.742 12.0502C130.076 12.0408 129.034 10.5827 129.532 9.18533ZM135.724 23.4862C135.631 23.9559 135.338 24.2643 134.883 24.4466C132.929 25.2294 131.684 24.8438 130.515 23.6147C130.109 23.1847 130.015 22.7408 130.286 22.194C130.536 21.6916 130.814 21.2149 131.181 20.7896C131.572 20.3386 131.952 19.8829 132.331 19.4249C132.829 18.8267 133.429 18.5557 134.207 18.8104C134.385 18.8664 134.57 18.8968 134.75 18.9412C135.345 19.0954 135.717 19.4623 135.85 20.0722C135.946 20.5092 136.051 20.9415 136.011 21.3644C136.053 22.1098 135.864 22.7945 135.724 23.4862Z" fill="white"/>
<path d="M60.4922 11.5698C60.0459 10.6257 59.5178 9.72143 59.1159 8.75635C58.8542 8.12543 58.485 7.5763 58.0013 7.09493C57.4428 6.53879 56.9661 5.91955 56.5548 5.24423C55.7814 3.96837 54.7999 2.92618 53.3208 2.45883C53.1432 2.40509 52.9656 2.33265 52.8114 2.22983C52.2389 1.84193 51.5869 1.67603 50.9233 1.57555C49.2268 1.32318 47.5303 1.03809 45.8245 0.876859C44.2262 0.727308 42.6419 0.47494 41.0506 0.271643C39.6789 0.0987242 38.3096 -0.0391436 36.9262 0.185184C36.071 0.323051 35.7695 0.622154 35.7345 1.49376C35.6877 2.6855 35.6153 3.87957 35.6083 5.07365C35.6013 6.6416 35.6083 8.21423 35.6877 9.77985C35.7275 10.5977 35.8934 11.4132 35.8513 12.2358C35.7719 13.8014 36.0125 15.367 35.8747 16.9349C35.849 17.2317 35.8466 17.5448 35.9167 17.8276C36.1434 18.7506 36.0079 19.6806 35.9424 20.592C35.8069 22.4216 36.0149 24.2419 35.9728 26.0693C35.9635 26.5133 36.0219 26.9596 35.9494 27.4036C35.8887 27.7751 35.8209 28.156 35.9775 28.5112C36.1808 28.9762 36.2672 29.4248 36.0336 29.9109C35.9752 30.0301 36.0009 30.2053 36.0266 30.3502C36.1247 30.8713 36.0663 31.3924 36.0686 31.9158C36.0686 32.5514 36.0476 33.187 36.0756 33.8202C36.1037 34.5283 36.3677 34.8951 37.0477 34.9863C37.931 35.1055 38.8026 35.3415 39.7116 35.2854C41.3497 35.1826 42.9901 35.1241 44.6304 35.033C45.0394 35.012 45.446 34.9372 45.8549 34.8951C46.2732 34.8507 46.5466 34.6288 46.6751 34.2362C46.7896 33.881 46.9088 33.5258 46.9952 33.1636C47.3574 31.6401 47.7079 30.1118 48.0584 28.5859C48.1169 28.3336 48.1169 27.9924 48.4417 27.9901C48.7338 27.9877 48.8155 28.3102 48.9114 28.5532C48.9534 28.6584 49.0025 28.7612 49.0305 28.8687C49.4582 30.4577 50.0867 31.9766 50.6756 33.5071C51.0962 34.6007 51.7201 34.9536 52.8488 34.7362C54.1433 34.4862 55.3164 33.9044 56.5198 33.402C56.861 33.2594 57.0362 32.965 57.0082 32.5958C56.9848 32.299 56.9287 32.0023 56.8516 31.7148C56.6062 30.8175 56.3609 29.9156 56.0828 29.0276C55.7043 27.8148 55.4192 26.581 55.2159 25.3309C55.1551 24.95 55.1388 24.5995 55.5243 24.3354C56.417 23.7232 57.2675 23.0479 58.1835 22.473C58.9921 21.9636 59.4641 21.2696 59.7632 20.3816C60.0249 19.6012 60.1464 18.781 60.4221 18.0099C60.7049 17.2294 60.8638 16.4279 60.9806 15.617C61.1816 14.2313 61.1185 12.89 60.4922 11.5698ZM48.3482 14.2407C47.4345 14.9254 46.355 15.2338 45.2871 15.5609C45.1819 15.5937 45.0674 15.5983 44.9553 15.6007C44.5066 15.6124 44.2612 15.4324 44.1748 14.9791C44.1047 14.6146 44.0439 14.2407 44.0439 13.8715C44.0463 12.5652 43.8383 11.2777 43.7401 9.97847C43.6537 8.86618 43.7051 8.81711 44.7706 8.81945C45.1048 8.82178 45.4413 8.81944 45.7731 8.78673C46.5115 8.71663 47.1962 8.91993 47.785 9.31016C49.0913 10.1794 49.2782 9.87565 49.3483 11.9624V12.1353C49.6381 13.084 49.0679 13.6986 48.3482 14.2407Z" fill="white"/>
<path d="M88.1948 14.6912C87.7298 13.5906 87.5359 12.4059 87.1153 11.2843C86.4727 9.57379 85.7833 7.88198 85.0893 6.19252C84.8346 5.57328 84.4911 4.99143 84.1803 4.39557C83.9536 3.95859 83.6288 3.60341 83.2596 3.27627C82.1824 2.32521 80.9182 1.69663 79.6167 1.11712C78.9297 0.811003 78.1819 0.708186 77.4855 0.444134C75.9596 -0.133041 74.4151 -0.0956533 72.8588 0.259531C72.6064 0.31795 72.3634 0.427777 72.1321 0.544614C71.6998 0.764268 71.2838 1.0143 70.8492 1.23162C70.3678 1.4723 69.9916 1.80879 69.7206 2.28315C69.2766 3.05895 68.7999 3.81839 68.3582 4.59886C67.7156 5.73452 67.0333 6.85615 66.4772 8.03387C65.8112 9.44293 65.2457 10.9011 64.6638 12.3498C64.526 12.691 64.4348 13.0696 64.4208 13.4341C64.3764 14.6235 64.304 15.8199 64.3858 17.0023C64.4465 17.8973 64.5096 18.7876 64.4909 20.0354C64.3951 21.7505 64.9022 23.7672 65.005 25.8188C65.019 26.0688 65.1475 26.3189 65.255 26.5549C65.949 28.0831 66.6828 29.595 67.3441 31.1372C67.7787 32.1467 68.5054 32.8571 69.3817 33.46C69.8117 33.7567 70.244 34.0488 70.6646 34.3549C71.7348 35.1377 72.8985 35.7056 74.2094 35.9579C74.7212 36.0561 75.2399 36.1612 75.7283 36.3365C76.6303 36.6636 77.4879 36.5304 78.3431 36.194C78.8993 35.9743 79.4437 35.7243 80.0022 35.5186C80.757 35.2382 81.3879 34.7872 81.9113 34.1867C82.1824 33.8736 82.4698 33.5955 82.811 33.3548C83.082 33.1632 83.3321 32.9225 83.5424 32.6655C84.2247 31.8242 84.9281 30.997 85.5426 30.1067C86.1221 29.2678 86.3044 28.2537 86.5241 27.2723C86.5498 27.1648 86.5568 27.0363 86.5171 26.9405C86.3698 26.5876 86.4353 26.3025 86.6946 26.0221C86.8162 25.8913 86.8933 25.6996 86.9307 25.522C87.1783 24.356 87.5312 23.2087 87.606 22.0099C87.6223 21.7482 87.641 21.4842 87.6994 21.2318C88.1621 19.2199 88.2205 17.1729 88.2813 15.1235C88.286 14.981 88.2509 14.8244 88.1948 14.6912ZM76.4223 13.8056C76.0718 14.1398 75.712 14.4646 75.3264 14.7543C74.9338 15.0488 74.5833 15.3689 74.2842 15.7545C74.0762 16.0209 73.8449 16.2896 73.4547 16.2171C72.9382 16.119 72.4265 15.9952 72.1321 15.4904C72.0947 15.425 72.0526 15.3596 72.0316 15.2895C71.6857 14.1117 71.4638 12.9083 71.2651 11.7002C71.2908 11.3567 71.3189 11.0272 71.4264 10.7024C71.5479 10.3379 71.7185 10.0271 72.0923 9.85653C72.576 9.63688 72.9312 9.27468 73.2724 8.86575C73.7 8.35634 74.1674 7.8703 74.7702 7.54082C75.1137 7.35388 75.3988 7.37958 75.6909 7.62261C76.1256 7.98246 76.5275 8.35634 76.6817 8.93585C76.8733 9.65323 77.1093 10.3589 77.2916 11.0786C77.5627 12.1582 77.2028 13.0579 76.4223 13.8056Z" fill="white"/>
</svg>
