<svg width="20" height="24" viewBox="0 0 20 24" fill="none" xmlns="http://www.w3.org/2000/svg">
<g clip-path="url(#clip0_506_10116)">
<path d="M16.1446 12.5109C16.1177 9.53323 18.598 8.10368 18.7101 8.03399C17.3144 6.0098 15.1424 5.73249 14.3675 5.69987C12.52 5.5145 10.7608 6.77795 9.82432 6.77795C8.88787 6.77795 7.4398 5.72656 5.90797 5.75622C3.89146 5.78588 2.035 6.91735 0.996828 8.70576C-1.09598 12.3048 0.462783 17.6389 2.50024 20.5603C3.49803 21.9883 4.68579 23.5973 6.24754 23.538C7.75245 23.4786 8.32091 22.5741 10.137 22.5741C11.953 22.5741 12.4646 23.538 14.0548 23.5098C15.6719 23.4786 16.6981 22.0506 17.6884 20.6181C18.8313 18.9602 19.304 17.3557 19.331 17.2711C19.2951 17.2563 16.1775 16.0714 16.1446 12.5109Z" fill="#EFF3F8" fill-opacity="0.8"/>
<path d="M13.1579 3.76697C13.9866 2.77193 14.5461 1.38834 14.392 0.00927734C13.1981 0.0567823 11.7532 0.798209 10.896 1.79325C10.1286 2.67267 9.45541 4.0814 9.63783 5.43239C10.9693 5.53471 12.329 4.76055 13.1579 3.76697Z" fill="#EFF3F8" fill-opacity="0.8"/>
</g>
<defs>
<clipPath id="clip0_506_10116">
<rect width="20" height="24" fill="white"/>
</clipPath>
</defs>
</svg>
