<svg width="24" height="24" viewBox="0 0 24 24" fill="none" xmlns="http://www.w3.org/2000/svg">
<path fill-rule="evenodd" clip-rule="evenodd" d="M12.7526 4.34151C12.3889 3.92587 11.7571 3.88375 11.3415 4.24744L3.34148 11.2474C3.12447 11.4373 2.99999 11.7117 2.99999 12C2.99999 12.2884 3.12447 12.5627 3.34148 12.7526L11.3415 19.7526C11.7571 20.1163 12.3889 20.0742 12.7526 19.6585C13.1162 19.2429 13.0741 18.6111 12.6585 18.2474L5.51858 12L12.6585 5.75259C13.0741 5.38891 13.1162 4.75715 12.7526 4.34151Z" fill="black"/>
<path fill-rule="evenodd" clip-rule="evenodd" d="M3 12C3 11.4477 3.44772 11 4 11H21C21.5523 11 22 11.4477 22 12C22 12.5523 21.5523 13 21 13H4C3.44772 13 3 12.5523 3 12Z" fill="black"/>
</svg>
