<svg width="40" height="40" viewBox="0 0 40 40" fill="none" xmlns="http://www.w3.org/2000/svg">
<g clip-path="url(#clip0_2816_564)">
<path d="M29.3431 21.4023H10.6569C6.98039 21.4023 4 24.3825 4 28.0588C4 31.735 6.98039 34.7152 10.6569 34.7152H29.3431C33.0196 34.7152 36 31.735 36 28.0588C36 24.3825 33.0196 21.4023 29.3431 21.4023Z" fill="#B26257"/>
<path d="M26.5158 13.7666H13.4847C10.1209 13.7666 7.39404 16.4933 7.39404 19.8568C7.39404 23.2204 10.1209 25.947 13.4847 25.947H26.5158C29.8796 25.947 32.6065 23.2204 32.6065 19.8568C32.6065 16.4933 29.8796 13.7666 26.5158 13.7666Z" fill="#B26257"/>
<path d="M18.1572 15.9508H23.7839C25.6844 15.9508 27.4719 14.2184 27.4719 12.0815C27.4719 7.98996 19.1892 5.28418 19.1892 5.28418C19.1892 5.28418 19.3084 6.35085 17.7155 7.5944C16.6532 8.42374 15.2915 8.61574 14.0301 9.67529C12.7039 10.7891 12.2977 12.3695 12.8337 14.1064C13.3697 15.8433 16.2559 15.9508 18.1572 15.9508Z" fill="#B26257"/>
<path d="M20.0349 25.1811C18.8145 25.1811 17.8091 25.0122 17.0393 24.8087C16.4278 24.6469 16.0002 25.3944 16.442 25.8478C17.2118 26.638 18.3816 27.3989 20.0349 27.3989C21.6882 27.3989 22.858 26.638 23.6278 25.8478C24.0696 25.3944 23.642 24.6469 23.0305 24.8087C22.2616 25.0122 21.2553 25.1811 20.0349 25.1811Z" fill="#7B261E"/>
<path d="M23.6693 22.2526C24.578 22.2526 25.3146 21.5159 25.3146 20.6072C25.3146 19.6986 24.578 18.9619 23.6693 18.9619C22.7606 18.9619 22.0239 19.6986 22.0239 20.6072C22.0239 21.5159 22.7606 22.2526 23.6693 22.2526Z" fill="black"/>
<path d="M16.3953 22.2526C17.304 22.2526 18.0407 21.5159 18.0407 20.6072C18.0407 19.6986 17.304 18.9619 16.3953 18.9619C15.4866 18.9619 14.75 19.6986 14.75 20.6072C14.75 21.5159 15.4866 22.2526 16.3953 22.2526Z" fill="black"/>
</g>
<defs>
<clipPath id="clip0_2816_564">
<rect width="40" height="40" fill="white"/>
</clipPath>
</defs>
</svg>
