<svg width="21" height="20" viewBox="0 0 21 20" fill="none" xmlns="http://www.w3.org/2000/svg">
<path fill-rule="evenodd" clip-rule="evenodd" d="M7.40388 4.1221C7.04886 4.20284 6.79694 4.51849 6.79694 4.88258V4.98517H6.79668V12.8041C6.44212 12.6357 6.04549 12.5414 5.62684 12.5414C4.11931 12.5414 2.89722 13.7635 2.89722 15.271C2.89722 16.7786 4.11931 18.0007 5.62684 18.0007C7.13438 18.0007 8.35647 16.7786 8.35647 15.271C8.35647 15.2521 8.35628 15.2332 8.3559 15.2144H8.35647V8.03342L16.0427 6.28541L16.0427 10.3675C15.6881 10.1991 15.2915 10.1049 14.8729 10.1049C13.3654 10.1049 12.1433 11.327 12.1433 12.8345C12.1433 14.342 13.3654 15.5641 14.8729 15.5641C16.3805 15.5641 17.6025 14.342 17.6025 12.8345C17.6025 12.8189 17.6024 12.8033 17.6022 12.7877H17.6025L17.6025 3.02399H17.6011V2.78022C17.6011 2.2797 17.1363 1.90875 16.6482 2.01975L7.40388 4.1221Z" fill="#E9EAED"/>
</svg>
