<svg width="40" height="40" viewBox="0 0 40 40" fill="none" xmlns="http://www.w3.org/2000/svg">
<path d="M20 7.75488C23.1888 7.75488 26.4344 8.45775 28.0036 9.37311C33.1377 12.3678 34.0057 16.859 34.5568 19.7103C34.7025 20.464 34.9617 21.4815 35.1598 21.8323C35.9953 23.3115 36.1065 25.1908 35.926 26.4756C35.665 28.3335 33.7622 31.0738 30.0656 32.2459C26.3689 33.418 23.9697 33.6432 20.0019 33.6434C16.0326 33.6436 13.6312 33.418 9.93453 32.2459C6.23791 31.0738 4.335 28.3335 4.07403 26.4756C3.89353 25.1908 4.00473 23.3115 4.84023 21.8323C5.03833 21.4815 5.29755 20.464 5.44327 19.7103C5.99428 16.859 6.86226 12.3678 11.9964 9.37311C13.5656 8.45775 16.8111 7.75489 20 7.75488Z" fill="#FFBB74"/>
<path d="M15.3785 18.2414C15.3785 18.9385 14.9397 19.5589 14.0951 19.5589C13.398 19.5589 12.8242 19.1104 12.8242 18.2414C12.8242 17.5443 13.4445 16.9424 14.1948 16.9424C14.9451 16.9424 15.3785 17.5443 15.3785 18.2414Z" fill="#1B1918"/>
<path d="M24.395 18.2414C24.395 18.9385 24.8337 19.5589 25.6783 19.5589C26.3754 19.5589 26.9492 19.1104 26.9492 18.2414C26.9492 17.5443 26.3289 16.9424 25.5786 16.9424C24.8284 16.9424 24.395 17.5443 24.395 18.2414Z" fill="#1B1918"/>
<path d="M15.5298 23.0122C15.5298 20.6132 17.1956 18.7244 18.6797 17.7859C19.2897 17.4001 20.0591 17.384 20.7001 17.7156C23.4019 19.1129 24.2435 21.9093 24.2435 23.0122C24.2435 26.526 21.6761 26.9928 19.6727 26.9928C18.6029 26.9928 15.5298 26.6427 15.5298 23.0122Z" fill="#FFE4C8"/>
<path d="M22.8374 21.6344C22.8374 22.7528 21.4841 23.1224 19.8147 23.1224C18.1452 23.1224 16.936 22.675 16.936 21.6344C16.936 20.5938 18.1452 20.1465 19.8147 20.1465C21.4841 20.1465 22.8374 20.516 22.8374 21.6344Z" fill="#1B1918"/>
<path d="M14.3744 10.5011C15.162 13.1611 15.0513 15.5897 12.3322 16.3925C9.61304 17.1953 7.0732 15.8384 6.38249 13.1551C5.9559 11.4824 5.736 8.33815 8.42622 7.13215C11.1164 5.92614 13.5867 7.84115 14.3744 10.5011Z" fill="#FFBB74"/>
<path d="M25.6753 10.0847C24.6653 12.6679 24.5605 15.0981 27.2023 16.1292C29.8436 17.1658 32.4869 16.0326 33.4066 13.4149C33.9792 11.7889 34.4672 8.67122 31.89 7.23968C29.3128 5.80815 26.6854 7.50156 25.6753 10.0847Z" fill="#FFBB74"/>
<path d="M11.6386 9.9242C11.9416 10.713 12.0617 11.7012 10.7386 12.267C9.78242 12.6806 8.53146 12.343 8.35594 10.8112C8.26311 9.97447 8.44389 9.21121 9.32105 8.84164C10.1184 8.50518 11.1942 8.76762 11.6328 9.91914L11.6386 9.9242Z" fill="#FFE4C8"/>
<path d="M28.4535 9.7469C28.0865 10.5069 27.8782 11.4768 29.1444 12.1634C30.0587 12.6577 31.3371 12.4302 31.643 10.9201C31.807 10.0946 31.6931 9.31846 30.8516 8.87372C30.0837 8.46769 28.9961 8.63912 28.4535 9.7469Z" fill="#FFE4C8"/>
</svg>
