<svg width="24" height="24" viewBox="0 0 24 24" fill="none" xmlns="http://www.w3.org/2000/svg">
<path fill-rule="evenodd" clip-rule="evenodd" d="M7.87137 8.98505L13.321 3.53546L13.3211 3.53534C13.7471 3.10931 14.4378 3.10931 14.8639 3.53534L20.4637 9.13522C20.8898 9.56125 20.8898 10.252 20.4637 10.678L20.4636 10.6781L15.014 16.1277L12.0831 19.0586H20.4111C20.8931 19.0586 21.2839 19.4493 21.2839 19.9313C21.2839 20.4133 20.8931 20.8041 20.4111 20.8041H10.0462C9.97641 20.8041 9.90856 20.7959 9.84353 20.7804C9.58606 20.7654 9.33291 20.6595 9.1362 20.4628L3.53632 14.8629C3.11029 14.4369 3.11029 13.7461 3.53632 13.3201L7.87137 8.98505ZM13.6255 14.7392L9.25987 10.3736L5.54193 14.0915L9.90759 18.4572L13.6255 14.7392Z" fill="#F7F7F8"/>
</svg>
