<svg width="42" height="41" viewBox="0 0 42 41" fill="none" xmlns="http://www.w3.org/2000/svg">
<rect x="4.41821" y="21.0012" width="32" height="19" rx="2" transform="rotate(-8.77815 4.41821 21.0012)" fill="#FF774C"/>
<path d="M4.79121 36.5215L7.14098 37.8913C7.9331 38.3531 8.85981 38.5288 9.76597 38.3888L12.8859 37.9071C13.9197 37.7474 14.6558 36.8181 14.5746 35.7752L12.3592 7.32759C12.1967 5.24179 13.6691 3.38315 15.7367 3.06387L20.477 2.33189C22.5446 2.01261 24.509 3.34056 24.9833 5.37821L31.452 33.169C31.6892 34.1879 32.6714 34.8518 33.7052 34.6922L36.5734 34.2493C37.6306 34.086 38.5784 33.5061 39.205 32.639L40.3695 31.0276" stroke="#CCCFD2" stroke-width="3" stroke-linecap="round"/>
</svg>
