<svg width="32" height="32" viewBox="0 0 32 32" fill="none" xmlns="http://www.w3.org/2000/svg">
<path fill-rule="evenodd" clip-rule="evenodd" d="M16.6636 25.3532V27.5239C16.6636 28.8255 15.3065 29.6823 14.1313 29.1227L3.67309 24.1426C3.0564 23.849 2.66357 23.2268 2.66357 22.5438V5.12102C2.66357 4.82444 2.73421 4.55061 2.8573 4.31132C2.94005 2.77227 4.21421 1.5498 5.7739 1.5498H19.5655C21.1786 1.5498 22.4864 2.85752 22.4864 4.47067V10.8717C22.4864 11.5068 21.9715 12.0217 21.3364 12.0217C20.7012 12.0217 20.1864 11.5068 20.1864 10.8717V4.47067C20.1864 4.12778 19.9084 3.8498 19.5655 3.8498H5.93101L15.6146 8.17284C16.2527 8.45769 16.6636 9.09112 16.6636 9.78989V23.0532H19.5655C19.9084 23.0532 20.1864 22.7753 20.1864 22.4324V21.9498C20.1864 21.3147 20.7012 20.7998 21.3364 20.7998C21.9715 20.7998 22.4864 21.3147 22.4864 21.9498V22.4324C22.4864 24.0455 21.1786 25.3532 19.5655 25.3532H16.6636ZM11.1733 16.9318C11.1733 15.9745 11.9494 15.1984 12.9067 15.1984C13.864 15.1984 14.64 15.9745 14.64 16.9318C14.64 17.889 13.864 18.6651 12.9067 18.6651C11.9494 18.6651 11.1733 17.889 11.1733 16.9318Z" fill="#FF774C"/>
<path d="M24.2676 16H26.7676C28.9767 16 30.7676 14.2091 30.7676 12V8.9375" stroke="#FF774C" stroke-width="2.2" stroke-linecap="round"/>
<path d="M25.4863 13L22.4863 16L25.4863 19" stroke="#FF774C" stroke-width="2.25" stroke-linecap="round" stroke-linejoin="round"/>
</svg>
