<svg width="22" height="22" viewBox="0 0 22 22" fill="none" xmlns="http://www.w3.org/2000/svg">
<mask id="mask0_2718_10799" style="mask-type:luminance" maskUnits="userSpaceOnUse" x="1" y="3" width="20" height="16">
<path d="M1.625 3.78125H20.375V18.3059H1.625V3.78125Z" fill="white"/>
</mask>
<g mask="url(#mask0_2718_10799)">
<path d="M17.4976 5.07535C16.2819 4.51742 14.9991 4.1195 13.6811 3.89157C13.6691 3.88938 13.6568 3.89101 13.6458 3.89623C13.6348 3.90144 13.6257 3.90998 13.6198 3.92063C13.455 4.2137 13.2724 4.5962 13.1446 4.89676C11.7034 4.68095 10.2696 4.68095 8.85804 4.89676C8.73016 4.58945 8.54097 4.2137 8.37541 3.92063C8.36931 3.91015 8.36018 3.90176 8.34922 3.89657C8.33826 3.89139 8.32598 3.88964 8.31401 3.89157C6.9959 4.11899 5.71297 4.51692 4.49754 5.07535C4.48719 5.07986 4.47843 5.08737 4.47241 5.09691C2.04166 8.72841 1.37585 12.2707 1.70247 15.769C1.70446 15.7863 1.71323 15.8021 1.72685 15.8129C3.33054 16.9907 4.88407 17.7057 6.40872 18.1796C6.42059 18.1831 6.43324 18.183 6.44499 18.1791C6.45675 18.1753 6.46705 18.1679 6.47454 18.1581C6.83519 17.6655 7.15666 17.1462 7.43238 16.6001C7.43618 16.5927 7.43835 16.5845 7.43874 16.5761C7.43914 16.5677 7.43775 16.5593 7.43468 16.5515C7.43161 16.5437 7.42691 16.5367 7.42091 16.5308C7.4149 16.5249 7.40773 16.5204 7.39985 16.5175C6.88985 16.324 6.40432 16.0883 5.93726 15.8204C5.92875 15.8154 5.92161 15.8084 5.91646 15.8C5.9113 15.7915 5.90831 15.782 5.90772 15.7721C5.90714 15.7623 5.90899 15.7524 5.91311 15.7434C5.91723 15.7345 5.92349 15.7266 5.93135 15.7207C6.02989 15.647 6.12672 15.5711 6.22179 15.493C6.23012 15.4862 6.2402 15.4818 6.2509 15.4803C6.26159 15.4789 6.27248 15.4804 6.28235 15.4848C9.35097 16.8858 12.673 16.8858 15.7053 15.4848C15.7153 15.4801 15.7263 15.4784 15.7371 15.4797C15.748 15.481 15.7583 15.4854 15.7668 15.4923C15.8619 15.5708 15.959 15.6469 16.0579 15.7207C16.0658 15.7266 16.0722 15.7344 16.0763 15.7433C16.0805 15.7522 16.0824 15.7621 16.0819 15.7719C16.0814 15.7818 16.0785 15.7913 16.0734 15.7998C16.0683 15.8083 16.0612 15.8153 16.0528 15.8204C15.5855 16.0933 15.0959 16.3262 14.5894 16.5168C14.5816 16.5198 14.5745 16.5245 14.5685 16.5304C14.5626 16.5364 14.558 16.5435 14.555 16.5514C14.552 16.5592 14.5507 16.5676 14.5511 16.576C14.5516 16.5844 14.5538 16.5926 14.5577 16.6001C14.8381 17.1419 15.158 17.6624 15.5147 18.1573C15.522 18.1674 15.5322 18.175 15.544 18.179C15.5558 18.183 15.5685 18.1832 15.5805 18.1796C17.1125 17.7057 18.6661 16.9907 20.2698 15.8129C20.2767 15.8078 20.2824 15.8014 20.2866 15.7939C20.2908 15.7865 20.2934 15.7783 20.2942 15.7698C20.6852 11.7253 19.6394 8.21204 17.5219 5.09766C17.5168 5.08751 17.5081 5.07958 17.4976 5.07535ZM7.89063 13.6389C6.96672 13.6389 6.20547 12.7908 6.20547 11.7491C6.20547 10.7075 6.95201 9.85932 7.89063 9.85932C8.83657 9.85932 9.59041 10.715 9.5756 11.7491C9.5756 12.7908 8.82916 13.6389 7.89063 13.6389ZM14.1209 13.6389C13.197 13.6389 12.4358 12.7908 12.4358 11.7491C12.4358 10.7075 13.1823 9.85932 14.1209 9.85932C15.0668 9.85932 15.8207 10.715 15.8059 11.7491C15.8059 12.7908 15.0668 13.6389 14.1209 13.6389Z" fill="white"/>
</g>
</svg>
