<svg width="44" height="44" viewBox="0 0 44 44" fill="none" xmlns="http://www.w3.org/2000/svg">
<rect width="44" height="44" rx="22" fill="#5865F2"/>
<g clip-path="url(#clip0_371_8592)">
<path d="M31.8765 12.9345C30.06 12.101 28.112 11.487 26.0754 11.1353C26.0383 11.1285 26.0012 11.1454 25.9821 11.1794C25.7316 11.6249 25.4541 12.2062 25.2598 12.6631C23.0692 12.3351 20.8899 12.3351 18.7443 12.6631C18.5499 12.1961 18.2623 11.6249 18.0107 11.1794C17.9916 11.1466 17.9545 11.1296 17.9174 11.1353C15.8819 11.4858 13.934 12.0999 12.1164 12.9345C12.1006 12.9413 12.0871 12.9526 12.0782 12.9673C8.3834 18.4873 7.37125 23.8715 7.86778 29.189C7.87002 29.215 7.88463 29.2399 7.90485 29.2557C10.3426 31.0459 12.7039 32.1327 15.0214 32.8531C15.0585 32.8644 15.0978 32.8509 15.1214 32.8203C15.6696 32.0717 16.1583 31.2823 16.5773 30.4522C16.602 30.4036 16.5784 30.3459 16.5278 30.3267C15.7527 30.0326 15.0147 29.6741 14.3047 29.267C14.2485 29.2342 14.244 29.1539 14.2957 29.1155C14.4451 29.0035 14.5945 28.887 14.7372 28.7694C14.763 28.7479 14.799 28.7434 14.8293 28.757C19.4935 30.8865 24.5431 30.8865 29.1523 28.757C29.1826 28.7423 29.2186 28.7468 29.2455 28.7683C29.3882 28.8859 29.5376 29.0035 29.6881 29.1155C29.7398 29.1539 29.7364 29.2342 29.6803 29.267C28.9703 29.6821 28.2322 30.0326 27.456 30.3256C27.4054 30.3448 27.383 30.4036 27.4077 30.4522C27.8357 31.2811 28.3244 32.0705 28.8624 32.8192C28.8849 32.8509 28.9253 32.8644 28.9624 32.8531C31.2912 32.1327 33.6525 31.0459 36.0902 29.2557C36.1116 29.2399 36.125 29.2161 36.1273 29.1901C36.7215 23.0425 35.132 17.7024 31.9135 12.9684C31.9056 12.9526 31.8922 12.9413 31.8765 12.9345ZM17.2738 25.9512C15.8695 25.9512 14.7125 24.662 14.7125 23.0787C14.7125 21.4954 15.8471 20.2062 17.2738 20.2062C18.7117 20.2062 19.8575 21.5068 19.835 23.0787C19.835 24.662 18.7004 25.9512 17.2738 25.9512ZM26.7438 25.9512C25.3396 25.9512 24.1825 24.662 24.1825 23.0787C24.1825 21.4954 25.3171 20.2062 26.7438 20.2062C28.1817 20.2062 29.3275 21.5068 29.3051 23.0787C29.3051 24.662 28.1817 25.9512 26.7438 25.9512Z" fill="white"/>
</g>
<defs>
<clipPath id="clip0_371_8592">
<rect width="28.5" height="28.5" fill="white" transform="translate(7.75 8)"/>
</clipPath>
</defs>
</svg>
