<svg width="24" height="24" viewBox="0 0 24 24" fill="none" xmlns="http://www.w3.org/2000/svg">
<path fill-rule="evenodd" clip-rule="evenodd" d="M4.91895 4.15725C4.91895 2.87145 5.96129 1.8291 7.2471 1.8291H17.5908C18.8766 1.8291 19.9189 2.87145 19.9189 4.15725V17.6285C19.9189 18.9143 18.8766 19.9567 17.5908 19.9567H11.1801C10.8861 19.9567 10.5949 19.901 10.3216 19.7926L6.38864 18.2325C5.50147 17.8806 4.91895 17.0228 4.91895 16.0684V4.15725ZM7.2471 3.8291C7.06586 3.8291 6.91895 3.97602 6.91895 4.15725V16.0684C6.91895 16.2029 7.00105 16.3238 7.1261 16.3734L11.0591 17.9335C11.0976 17.9488 11.1386 17.9567 11.1801 17.9567H17.5908C17.772 17.9567 17.9189 17.8097 17.9189 17.6285V4.15725C17.9189 3.97602 17.772 3.8291 17.5908 3.8291H7.2471Z" fill="black"/>
<path fill-rule="evenodd" clip-rule="evenodd" d="M6.78852 3.39714C5.91001 3.00495 4.91895 3.64785 4.91895 4.60993V17.677C4.91895 18.1893 5.21356 18.6559 5.67608 18.8761L13.5198 22.6112C14.4011 23.0309 15.4189 22.3883 15.4189 21.4121V8.11158C15.4189 7.58751 15.1108 7.11243 14.6322 6.89879L6.78852 3.39714ZM12.6013 12.168C11.8833 12.168 11.3013 12.75 11.3013 13.468C11.3013 14.186 11.8833 14.768 12.6013 14.768C13.3192 14.768 13.9013 14.186 13.9013 13.468C13.9013 12.75 13.3192 12.168 12.6013 12.168Z" fill="black"/>
</svg>
