<svg width="40" height="40" viewBox="0 0 40 40" fill="none" xmlns="http://www.w3.org/2000/svg">
<g clip-path="url(#clip0_2816_566)">
<path d="M30.4835 24.8728C31.9236 24.8728 33.0919 23.7344 33.0919 22.3293C33.0919 20.9243 31.9245 19.7859 30.4835 19.7859H29.8433C31.1475 19.65 32.1675 18.5817 32.1675 17.2697C32.1675 15.8647 31.0036 14.7262 29.5679 14.7262C29.567 14.7262 29.5662 14.7262 29.5653 14.7262H27.8507H18.3628L20.1335 8.7106L20.1256 8.70709C20.6142 7.47748 20.1502 6.04526 18.9706 5.3638C17.6734 4.6148 16.0149 5.05947 15.2659 6.35661L8.34168 18.2213H8.3487C7.43482 19.8508 6.90771 21.7268 6.90771 23.7274C6.90771 29.9526 11.9542 35 18.1804 35H27.8507V34.9921H27.8524C29.2925 34.9921 30.4607 33.8537 30.4607 32.4487C30.4607 31.1375 29.439 30.0701 28.1322 29.9324H29.168C30.6081 29.9324 31.7763 28.794 31.7763 27.389C31.7763 26.0778 30.7545 25.0105 29.4478 24.8728H30.4835Z" fill="#FFC84D"/>
</g>
<defs>
<clipPath id="clip0_2816_566">
<rect width="40" height="40" fill="white"/>
</clipPath>
</defs>
</svg>
