<svg width="22" height="24" viewBox="0 0 22 24" fill="none" xmlns="http://www.w3.org/2000/svg">
<g clip-path="url(#clip0_506_10121)">
<path d="M21.8358 12.0867C21.8358 11.2991 21.775 10.5072 21.6453 9.73242H11.2393V14.1941H17.1983C16.951 15.633 16.1565 16.9059 14.993 17.7148V20.6098H18.5482C20.6359 18.5918 21.8358 15.6117 21.8358 12.0867Z" fill="#4285F4"/>
<path d="M11.2394 23.407C14.2149 23.407 16.7241 22.381 18.5524 20.61L14.9972 17.7151C14.0081 18.4218 12.7312 18.8219 11.2434 18.8219C8.36526 18.8219 5.92489 16.7827 5.04928 14.041H1.38062V17.0254C3.25346 20.9378 7.06806 23.407 11.2394 23.407Z" fill="#34A853"/>
<path d="M5.04496 14.0411C4.58283 12.6021 4.58283 11.0439 5.04496 9.60496V6.62061H1.38035C-0.184402 9.89446 -0.184402 13.7516 1.38035 17.0254L5.04496 14.0411Z" fill="#FBBC04"/>
<path d="M11.2394 4.81976C12.8122 4.79422 14.3324 5.41578 15.4715 6.55674L18.6213 3.24883C16.6268 1.28196 13.9797 0.200609 11.2394 0.234667C7.06806 0.234667 3.25346 2.70389 1.38062 6.6206L5.04522 9.60495C5.91678 6.85901 8.36121 4.81976 11.2394 4.81976Z" fill="#EA4335"/>
</g>
<defs>
<clipPath id="clip0_506_10121">
<rect width="21.6269" height="23.1724" fill="white" transform="translate(0.20874 0.234863)"/>
</clipPath>
</defs>
</svg>
