<svg width="21" height="20" viewBox="0 0 21 20" fill="none" xmlns="http://www.w3.org/2000/svg">
<path fill-rule="evenodd" clip-rule="evenodd" d="M16.5147 8.26499C16.5147 10.4643 15.3815 12.3989 13.6672 13.5167V15.0287C13.6672 15.3432 13.4122 15.5982 13.0976 15.5982H7.40238C7.08783 15.5982 6.83284 15.3432 6.83284 15.0287V13.5169C5.11839 12.399 3.98511 10.4644 3.98511 8.26499C3.98511 4.80493 6.78995 2 10.2499 2C13.7099 2 16.5147 4.80493 16.5147 8.26499ZM14.984 7.70936C15.0199 8.01498 14.7671 8.2653 14.4593 8.2653C14.1516 8.2653 13.9065 8.0144 13.8597 7.71025C13.7668 7.10598 13.5232 6.53155 13.1474 6.04181C12.7716 5.55208 12.2799 5.16806 11.7202 4.92192C11.4386 4.79802 11.2597 4.49632 11.3393 4.19907C11.4189 3.90182 11.7262 3.72239 12.0121 3.83616C12.8074 4.15262 13.5063 4.6789 14.0315 5.36341C14.5567 6.04792 14.8842 6.85922 14.984 7.70936Z" fill="#E9EAED"/>
<rect x="6.83301" y="16.8613" width="6.83433" height="1.13909" rx="0.569536" fill="#E9EAED"/>
</svg>
