<svg width="24" height="24" viewBox="0 0 24 24" fill="none" xmlns="http://www.w3.org/2000/svg">
<path fill-rule="evenodd" clip-rule="evenodd" d="M22 12C22 17.5228 17.5228 22 12 22C6.47715 22 2 17.5228 2 12C2 6.47715 6.47715 2 12 2C17.5228 2 22 6.47715 22 12ZM10.8 16.0623C10.8 15.3996 11.3373 14.8623 12 14.8623C12.6628 14.8623 13.2 15.3996 13.2 16.0623C13.2 16.725 12.6628 17.2623 12 17.2623C11.3373 17.2623 10.8 16.725 10.8 16.0623ZM12 6.7373C11.4477 6.7373 11 7.18502 11 7.7373V12.7373C11 13.2896 11.4477 13.7373 12 13.7373C12.5523 13.7373 13 13.2896 13 12.7373V7.7373C13 7.18502 12.5523 6.7373 12 6.7373Z" fill="black"/>
</svg>
