<svg width="21" height="20" viewBox="0 0 21 20" fill="none" xmlns="http://www.w3.org/2000/svg">
<path d="M10.2501 14.167C10.4862 14.167 10.6841 14.0871 10.8438 13.9274C11.0036 13.7677 11.0834 13.5698 11.0834 13.3337V10.0003C11.0834 9.76421 11.0036 9.5663 10.8438 9.40658C10.6841 9.24685 10.4862 9.16699 10.2501 9.16699C10.014 9.16699 9.81605 9.24685 9.65633 9.40658C9.49661 9.5663 9.41675 9.76421 9.41675 10.0003V13.3337C9.41675 13.5698 9.49661 13.7677 9.65633 13.9274C9.81605 14.0871 10.014 14.167 10.2501 14.167ZM10.2501 7.50033C10.4862 7.50033 10.6841 7.42046 10.8438 7.26074C11.0036 7.10102 11.0834 6.9031 11.0834 6.66699C11.0834 6.43088 11.0036 6.23296 10.8438 6.07324C10.6841 5.91352 10.4862 5.83366 10.2501 5.83366C10.014 5.83366 9.81605 5.91352 9.65633 6.07324C9.49661 6.23296 9.41675 6.43088 9.41675 6.66699C9.41675 6.9031 9.49661 7.10102 9.65633 7.26074C9.81605 7.42046 10.014 7.50033 10.2501 7.50033ZM10.2501 18.3337C9.0973 18.3337 8.01397 18.1149 7.00008 17.6774C5.98619 17.2399 5.10425 16.6462 4.35425 15.8962C3.60425 15.1462 3.0105 14.2642 2.573 13.2503C2.1355 12.2364 1.91675 11.1531 1.91675 10.0003C1.91675 8.84755 2.1355 7.76421 2.573 6.75033C3.0105 5.73644 3.60425 4.85449 4.35425 4.10449C5.10425 3.35449 5.98619 2.76074 7.00008 2.32324C8.01397 1.88574 9.0973 1.66699 10.2501 1.66699C11.4029 1.66699 12.4862 1.88574 13.5001 2.32324C14.514 2.76074 15.3959 3.35449 16.1459 4.10449C16.8959 4.85449 17.4897 5.73644 17.9272 6.75033C18.3647 7.76421 18.5834 8.84755 18.5834 10.0003C18.5834 11.1531 18.3647 12.2364 17.9272 13.2503C17.4897 14.2642 16.8959 15.1462 16.1459 15.8962C15.3959 16.6462 14.514 17.2399 13.5001 17.6774C12.4862 18.1149 11.4029 18.3337 10.2501 18.3337Z" fill="#E9EAED"/>
</svg>
