<svg width="24" height="24" viewBox="0 0 24 24" fill="none" xmlns="http://www.w3.org/2000/svg">
<path fill-rule="evenodd" clip-rule="evenodd" d="M12 22C17.5228 22 22 17.5228 22 12C22 6.47715 17.5228 2 12 2C6.47715 2 2 6.47715 2 12C2 17.5228 6.47715 22 12 22ZM16.5567 10.617C16.9369 10.2164 16.9203 9.58345 16.5196 9.2033C16.119 8.82316 15.486 8.83976 15.1059 9.2404L11.2143 13.3418L9.2298 11.1029C8.86347 10.6896 8.23145 10.6515 7.81815 11.0178C7.40485 11.3842 7.36677 12.0162 7.73311 12.4295L10.4408 15.4843C10.6267 15.694 10.892 15.8161 11.1722 15.8209C11.4524 15.8256 11.7217 15.7126 11.9146 15.5093L16.5567 10.617Z" fill="black"/>
</svg>
