<svg width="21" height="20" viewBox="0 0 21 20" fill="none" xmlns="http://www.w3.org/2000/svg">
<path d="M6.08341 2.41699H14.4167C16.3037 2.41699 17.8334 3.94669 17.8334 5.83366V14.167C17.8334 16.054 16.3037 17.5837 14.4167 17.5837H6.08341C4.19644 17.5837 2.66675 16.054 2.66675 14.167V5.83366C2.66675 3.94669 4.19644 2.41699 6.08341 2.41699Z" stroke="#E9EAED" stroke-width="1.5" stroke-linecap="round" stroke-linejoin="round"/>
<path d="M12.8414 9.58526C12.9211 10.1228 12.8293 10.6717 12.579 11.154C12.3287 11.6363 11.9328 12.0274 11.4474 12.2717C10.9621 12.516 10.412 12.601 9.87556 12.5147C9.33909 12.4284 8.8435 12.1751 8.45928 11.7909C8.07506 11.4067 7.82177 10.9111 7.73545 10.3746C7.64912 9.83814 7.73416 9.28811 7.97845 8.80276C8.22274 8.3174 8.61386 7.92143 9.09617 7.67117C9.57847 7.42091 10.1274 7.3291 10.6649 7.40881C11.2132 7.49011 11.7207 7.74558 12.1127 8.1375C12.5046 8.52942 12.7601 9.037 12.8414 9.58526Z" stroke="#E9EAED" stroke-width="1.5" stroke-linecap="round" stroke-linejoin="round"/>
<path d="M14.4268 5.76172H14.4351" stroke="#E9EAED" stroke-width="1.66667" stroke-linecap="round" stroke-linejoin="round"/>
</svg>
