<svg width="21" height="20" viewBox="0 0 21 20" fill="none" xmlns="http://www.w3.org/2000/svg">
<circle cx="10.2501" cy="10.0003" r="7.5" stroke="#E9EAED" stroke-width="1.66667"/>
<path d="M12.8334 10.0003C12.8334 12.2305 12.4705 14.2151 11.9107 15.6143C11.6301 16.3161 11.3146 16.8336 11.0026 17.1635C10.6922 17.4917 10.4376 17.5837 10.2501 17.5837C10.0625 17.5837 9.80795 17.4917 9.49751 17.1635C9.18558 16.8336 8.87011 16.3161 8.58942 15.6143C8.0297 14.2151 7.66675 12.2305 7.66675 10.0003C7.66675 7.77013 8.0297 5.7856 8.58942 4.38631C8.87011 3.68459 9.18558 3.16704 9.49751 2.8372C9.80795 2.50894 10.0625 2.41699 10.2501 2.41699C10.4376 2.41699 10.6922 2.50894 11.0026 2.8372C11.3146 3.16704 11.6301 3.68459 11.9107 4.38631C12.4705 5.7856 12.8334 7.77013 12.8334 10.0003Z" stroke="#E9EAED" stroke-width="1.5"/>
<path d="M3.56592 7.625H16.9347M16.9347 12.376H3.56592" stroke="#E9EAED" stroke-width="1.5"/>
</svg>
