<svg width="21" height="20" viewBox="0 0 21 20" fill="none" xmlns="http://www.w3.org/2000/svg">
<path fill-rule="evenodd" clip-rule="evenodd" d="M2.61803 3.19629C2.2078 3.19629 1.87524 3.52884 1.87524 3.93907V14.0803C1.87524 14.4905 2.2078 14.8231 2.61803 14.8231H11.4434V15.981V15.9814C11.4436 16.553 12.0624 16.9102 12.5575 16.6243L14.3695 15.5781L16.3181 16.7032C16.8133 16.9891 17.4323 16.6317 17.4323 16.0599V13.3415L17.4322 13.3289V12.024C18.1701 11.2691 18.6249 10.2363 18.6249 9.09731C18.6249 8.22612 18.3588 7.41707 17.9035 6.74698V3.93907C17.9035 3.52884 17.5709 3.19629 17.1607 3.19629H2.61803ZM12.9287 13.1357V13.0043C13.3969 13.1853 13.9057 13.2845 14.4377 13.2845C14.9697 13.2845 15.4785 13.1853 15.9466 13.0043V13.3289V13.3407L15.9467 13.3471V14.7734L15.1123 14.2916L14.3695 13.8628L13.6268 14.2916L12.9289 14.6945V14.6213V13.1357H12.9287ZM17.1393 9.09731C17.1393 10.5894 15.9297 11.7989 14.4377 11.7989C12.9457 11.7989 11.7361 10.5894 11.7361 9.09731C11.7361 7.60526 12.9457 6.39572 14.4377 6.39572C15.9297 6.39572 17.1393 7.60526 17.1393 9.09731ZM5.05687 7.13955C4.64664 7.13955 4.31408 7.47211 4.31408 7.88234C4.31408 8.29257 4.64664 8.62512 5.05687 8.62512H8.77079C9.18102 8.62512 9.51357 8.29257 9.51357 7.88234C9.51357 7.47211 9.18102 7.13955 8.77079 7.13955H5.05687ZM4.31416 10.4823C4.31416 10.0721 4.64671 9.73955 5.05694 9.73955H8.77086C9.18109 9.73955 9.51365 10.0721 9.51365 10.4823C9.51365 10.8926 9.18109 11.2251 8.77086 11.2251H5.05694C4.64671 11.2251 4.31416 10.8926 4.31416 10.4823Z" fill="#E9EAED"/>
</svg>
