<svg width="40" height="40" viewBox="0 0 40 40" fill="none" xmlns="http://www.w3.org/2000/svg">
<path d="M19.6011 32.9386C16.6603 32.9386 14.6029 32.6133 12.3188 31.9599C7.63346 30.6195 4.89169 28.0091 4.58591 23.4734C4.29999 19.2321 5.5892 15.8287 8.30614 13.4336C11.0231 11.0386 15.01 10.2077 19.6011 10.172C24.3192 10.1353 28.5175 11.0386 31.2345 13.4336C33.9514 15.8287 35.2406 19.2321 34.9547 23.4734C34.6489 28.0091 31.9071 30.6195 27.2218 31.9599C24.9377 32.6133 22.5419 32.9386 19.6011 32.9386Z" fill="#FFF2E6"/>
<mask id="mask0_117_2848" style="mask-type:alpha" maskUnits="userSpaceOnUse" x="4" y="10" width="31" height="23">
<path d="M19.6008 32.9386C16.66 32.9386 14.6027 32.6133 12.3185 31.9599C7.63321 30.6195 4.89144 28.0091 4.58567 23.4734C4.29974 19.2321 5.58895 15.8287 8.30589 13.4336C11.0228 11.0386 15.0098 10.2077 19.6008 10.172C24.319 10.1353 28.5173 11.0386 31.2342 13.4336C33.9512 15.8287 35.2404 19.2321 34.9545 23.4734C34.6487 28.0091 31.9069 30.6195 27.2216 31.9599C24.9374 32.6133 22.5416 32.9386 19.6008 32.9386Z" fill="#FFF2E6"/>
</mask>
<g mask="url(#mask0_117_2848)">
<path d="M22.0637 20.8993C27.0466 25.088 35.7631 28.5234 40.3346 22.7048C44.9201 16.8914 42.0986 8.25068 35.864 3.95035C31.9924 1.27578 23.887 -2.50659 18.3084 2.84457C12.7297 8.19573 17.0807 16.7106 22.0637 20.8993Z" fill="#F2A151"/>
</g>
<path d="M20.6393 23.0745C20.616 23.4745 20.2765 23.721 19.7695 23.6885C19.2904 23.6559 18.8997 23.4699 18.8997 23.0466C18.8997 22.6233 19.2904 22.4279 19.7695 22.4047C20.2486 22.3814 20.6625 22.6605 20.6393 23.0745Z" fill="#EFB2A6"/>
<path d="M17.6858 25.1934C18.5362 25.7187 20.0605 25.966 21.3975 25.5144" stroke="#ECC49A" stroke-width="0.828687" stroke-miterlimit="10" stroke-linecap="round"/>
<path d="M14.2953 11.1397C14.9455 13.4106 14.8326 15.4777 12.5112 16.1404C10.1898 16.803 8.03772 15.6282 7.47023 13.3381C7.11986 11.9106 6.95678 9.23165 9.25664 8.22543C11.5565 7.21922 13.6451 8.86877 14.2953 11.1397Z" fill="#FFF2E6"/>
<path d="M24.7284 11.2635C24.1872 13.5624 24.3909 15.6236 26.7417 16.1755C29.0928 16.732 31.1849 15.4592 31.6456 13.142C31.933 11.7025 31.9698 9.01573 29.6254 8.11857C27.2809 7.2214 25.2695 8.96456 24.7284 11.2635Z" fill="#F2A151"/>
<path d="M11.9704 10.6277C12.2223 11.3017 12.317 12.144 11.1861 12.6156C10.3688 12.9604 9.30622 12.6634 9.16854 11.3578C9.09592 10.6446 9.25572 9.99609 10.0054 9.68815C10.6869 9.40779 11.6009 9.63951 11.9654 10.6234L11.9704 10.6277Z" fill="#EFB2A6"/>
<path d="M27.0297 10.644C26.8116 11.3287 26.7525 12.1714 27.9023 12.598C28.7325 12.9049 29.7828 12.5595 29.8592 11.2498C29.8983 10.5343 29.7091 9.89362 28.9462 9.61981C28.2502 9.36978 27.3539 9.64494 27.0297 10.644Z" fill="#EFB2A6"/>
<path d="M16.3707 20.321C16.4219 20.9862 16.287 21.7676 15.1521 21.8978C14.3334 21.9909 13.459 21.4513 13.6776 20.2512C13.7985 19.5954 14.1102 19.0558 14.859 18.9767C15.5428 18.9023 16.2963 19.3488 16.3707 20.3256V20.321Z" fill="black"/>
<path d="M16.0127 20.3208C15.8964 20.6046 15.6731 20.8883 15.1196 20.6697C14.7196 20.5116 14.4265 20.0836 14.78 19.6464C14.9754 19.4092 15.2312 19.265 15.594 19.4092C15.9289 19.5441 16.1848 19.9022 16.0127 20.3208Z" fill="white"/>
<path d="M14.7566 20.8418C14.7705 21.0185 14.7333 21.2185 14.4356 21.2557C14.2217 21.279 13.9937 21.1395 14.0496 20.8232C14.0821 20.6511 14.1612 20.5115 14.3612 20.4883C14.538 20.4696 14.738 20.5859 14.7566 20.8418Z" fill="white"/>
<path d="M15.45 21.321C15.4593 21.4466 15.436 21.5862 15.2267 21.6141C15.0732 21.6327 14.9151 21.5304 14.9523 21.3071C14.9755 21.1861 15.0314 21.0885 15.1709 21.0699C15.2965 21.0559 15.436 21.1396 15.45 21.321Z" fill="white"/>
<path d="M25.8878 20.321C25.939 20.9862 25.8041 21.7676 24.6692 21.8978C23.8505 21.9909 22.9761 21.4513 23.1947 20.2512C23.3156 19.5954 23.6273 19.0558 24.3761 18.9767C25.0599 18.9023 25.8134 19.3488 25.8878 20.3256V20.321Z" fill="black"/>
<path d="M25.539 20.1901C25.4645 20.4878 25.2831 20.7994 24.7064 20.6645C24.2877 20.5669 23.9389 20.1854 24.2226 19.7017C24.3808 19.4366 24.6133 19.2598 24.9947 19.3482C25.3436 19.4319 25.6506 19.7529 25.539 20.1854V20.1901Z" fill="white"/>
<path d="M24.269 20.8476C24.283 21.0244 24.2458 21.2244 23.9481 21.2616C23.7341 21.2849 23.5062 21.1453 23.562 20.829C23.5946 20.6569 23.6736 20.5174 23.8737 20.4941C24.0504 20.4755 24.2504 20.5918 24.269 20.8476Z" fill="white"/>
<path d="M24.9668 21.321C24.9761 21.4466 24.9529 21.5862 24.7436 21.6141C24.5901 21.6327 24.4319 21.5304 24.4691 21.3071C24.4924 21.1861 24.5482 21.0885 24.6877 21.0699C24.8133 21.0559 24.9529 21.1396 24.9668 21.321Z" fill="white"/>
<path d="M35.7058 15.3553C35.036 17.6531 31.8498 22.5558 27.0589 24.0861C25.1426 24.7001 22.5099 22.8116 21.8076 22.379C20.8866 21.8115 19.1563 21.1092 17.733 22.379C17.0446 22.8302 14.3933 24.7001 12.4816 24.0861C7.69069 22.5558 4.50451 17.6531 3.83471 15.3553C3.6161 14.5971 3.97425 14.1924 4.59754 14.0529C5.55106 13.8436 8.16513 14.239 9.59309 14.6622C14.3514 16.0763 15.6166 17.788 17.4074 18.5369C19.0028 19.2067 20.6215 19.4672 22.1331 18.5369C23.789 17.5182 25.1891 16.0763 29.9474 14.6622C31.3754 14.239 33.9894 13.8436 34.943 14.0529C35.5663 14.1924 35.9244 14.5971 35.7058 15.3553Z" fill="#2A2B2E"/>
<mask id="mask1_117_2848" style="mask-type:alpha" maskUnits="userSpaceOnUse" x="3" y="13" width="33" height="12">
<path d="M35.7058 15.3553C35.036 17.6531 31.8498 22.5558 27.0589 24.0861C25.1426 24.7001 22.5099 22.8116 21.8076 22.379C20.8866 21.8115 19.1563 21.1092 17.733 22.379C17.0446 22.8302 14.3933 24.7001 12.4816 24.0861C7.69069 22.5558 4.50451 17.6531 3.83471 15.3553C3.6161 14.5971 3.97425 14.1924 4.59754 14.0529C5.55106 13.8436 8.16513 14.239 9.59309 14.6622C14.3514 16.0763 15.6166 17.788 17.4074 18.5369C19.0028 19.2067 20.6215 19.4672 22.1331 18.5369C23.789 17.5182 25.1891 16.0763 29.9474 14.6622C31.3754 14.239 33.9894 13.8436 34.943 14.0529C35.5663 14.1924 35.9244 14.5971 35.7058 15.3553Z" fill="#2A2B2E"/>
</mask>
<g mask="url(#mask1_117_2848)">
<rect width="4.47763" height="14.0856" transform="matrix(0.721944 0.691951 -0.691934 0.721961 14.2966 12.9561)" fill="#595B5F"/>
<rect width="3.95013" height="16.2471" transform="matrix(0.77088 0.636981 -0.636963 0.770895 31.2539 11.1875)" fill="#595B5F"/>
</g>
</svg>
