<svg width="21" height="20" viewBox="0 0 21 20" fill="none" xmlns="http://www.w3.org/2000/svg">
<path fill-rule="evenodd" clip-rule="evenodd" d="M2.25061 3.7168C2.25061 3.16451 2.69833 2.7168 3.25061 2.7168H17.2506C17.8029 2.7168 18.2506 3.16451 18.2506 3.7168V13.7168C18.2506 14.2691 17.8029 14.7168 17.2506 14.7168H7.10181L7.09165 14.7243L3.83766 17.0907C3.17669 17.5714 2.24951 17.0992 2.24951 16.2819V11.5491C2.24951 11.5328 2.24988 11.5166 2.25061 11.5006V3.7168ZM6.24951 9.7168C6.8018 9.7168 7.24951 9.26908 7.24951 8.7168C7.24951 8.16451 6.8018 7.7168 6.24951 7.7168C5.69723 7.7168 5.24951 8.16451 5.24951 8.7168C5.24951 9.26908 5.69723 9.7168 6.24951 9.7168ZM10.2495 9.7168C10.8018 9.7168 11.2495 9.26908 11.2495 8.7168C11.2495 8.16451 10.8018 7.7168 10.2495 7.7168C9.69723 7.7168 9.24951 8.16451 9.24951 8.7168C9.24951 9.26908 9.69723 9.7168 10.2495 9.7168ZM15.2495 8.7168C15.2495 9.26908 14.8018 9.7168 14.2495 9.7168C13.6972 9.7168 13.2495 9.26908 13.2495 8.7168C13.2495 8.16451 13.6972 7.7168 14.2495 7.7168C14.8018 7.7168 15.2495 8.16451 15.2495 8.7168Z" fill="#E9EAED"/>
</svg>
