<svg width="620" height="517" viewBox="0 0 620 517" fill="none" xmlns="http://www.w3.org/2000/svg">
<path d="M619.501 141.991C618.21 137.764 615.429 135.132 611.356 133.703C607.249 132.256 603.098 131.306 598.668 131.968C596.357 132.317 594.011 132.483 591.613 132.352C589.294 132.221 587 133.223 584.637 133.493C581.62 133.842 578.594 134.487 575.681 135.35C572.611 136.256 569.638 137.424 566.376 137.476C565.713 137.485 564.998 137.755 564.397 138.078C562.251 139.228 559.914 139.533 557.551 139.751C555.615 139.934 553.67 140.012 551.743 140.282C548.456 140.736 545.247 141.79 541.837 141.424C540.782 141.311 539.587 141.633 538.593 142.069C534.878 143.69 530.849 144.204 527.021 145.407C520.114 147.577 513.199 149.73 506.257 151.778C501.313 153.242 496.412 154.767 491.337 155.725C487.508 156.449 483.872 157.773 480.323 159.516C475.701 161.791 470.556 162.663 465.568 163.865C462.612 164.571 459.498 164.632 456.455 164.998C455.906 165.068 455.269 165.059 454.833 165.347C451.885 167.282 448.389 167.944 445.328 169.626C440.418 172.336 435.081 173.835 429.57 174.75C426.692 175.23 423.814 175.622 421.137 177.008C417.291 178.986 413.202 180.345 409.007 181.443C406.6 182.071 404.202 182.829 402.275 184.607C401.699 185.139 400.819 185.444 399.563 185.2C399.223 181.565 400.749 178.515 401.821 175.404C402.676 172.929 403.356 170.349 404.804 168.109C405.179 163.97 407.682 160.649 409.304 157.033C410.699 153.921 413.367 151.412 414.388 148.013C415.722 146.967 415.818 145.416 416.167 143.917C417.274 139.202 418.181 134.435 420.091 129.92C420.701 128.482 422 127.323 422.245 125.929C422.707 123.288 424.137 121.005 424.582 118.399C424.774 117.284 425.122 116.264 425.698 115.279C426.178 114.451 426.622 113.501 426.727 112.569C427.233 107.863 429.334 103.801 431.663 99.8274C432.805 97.8753 433.677 95.7924 434.009 93.5962C434.654 89.4217 435.944 85.4302 437.523 81.5956C438.883 78.2927 439.886 74.7631 442.206 71.8697C442.869 71.0505 442.982 69.8042 443.435 68.7933C444.116 67.2769 444.15 65.4467 445.328 64.1918C446.418 63.0152 446.88 61.6208 447.429 60.1742C448.947 56.1391 450.438 52.0954 451.65 47.947C452.191 46.0994 453.063 44.3303 453.83 42.5524C455.19 39.4063 457.222 36.4519 457.249 32.7916C457.249 32.0247 457.711 31.1793 458.173 30.517C459.577 28.5038 460.152 26.2554 460.362 23.8587C460.51 22.1942 460.78 20.5558 461.678 19.0655C462.027 18.4903 462.106 17.7495 462.289 17.0872C463.292 13.4966 462.123 10.2459 460.789 6.97778C460.004 5.06919 458.748 3.70965 457.074 2.60285C454.423 0.842415 451.397 0.0929246 448.362 0.0232046C445.389 -0.0465154 442.171 -0.12495 439.851 2.46341C434.724 5.33064 430.468 9.33954 426.082 13.1567C424.913 14.1764 423.762 15.1089 422.41 15.8584C419.48 17.4794 416.637 19.3357 414.396 21.802C410.394 26.2205 406.434 30.6826 402.999 35.5979C401.342 37.9596 399.284 40.0164 396.964 41.8552C393.711 44.4349 390.302 46.8576 387.651 50.1519C385.898 52.3219 384.162 54.4745 382.75 56.8886C381.982 58.2046 381.058 59.4421 380.073 60.6099C377.648 63.4684 375.093 66.2137 372.695 69.0983C371.352 70.7193 369.974 72.2444 368.248 73.4733C365.832 75.1988 363.957 77.4212 362.562 80.0444C361.638 81.7699 360.495 83.3386 359.109 84.733C356.641 87.1994 355.272 90.5285 352.708 92.9251C351.975 95.13 350.362 96.6552 348.723 98.1803C347.109 99.688 345.601 101.3 344.048 102.869C343.368 103.566 342.81 104.464 341.999 104.934C340.429 105.841 339.514 107.279 338.912 108.778C337.055 113.405 333.811 116.987 330.532 120.569C328.273 123.035 326.058 125.537 323.817 128.012C321.288 130.792 318.846 133.65 316.169 136.274C314.957 137.468 313.954 138.696 313.073 140.143C311.355 142.975 308.835 145.25 307.266 148.213C307.021 148.684 306.507 149.032 306.071 149.364C303.054 151.699 300.795 154.688 298.641 157.773C297.115 159.952 295.38 161.922 293.243 163.534C291.246 165.042 289.371 166.672 287.897 168.772C286.781 170.358 285.369 171.744 283.712 172.816C282.499 173.6 281.47 173.173 281.427 171.691C281.305 167.935 281.296 164.17 281.261 160.405C281.261 160.135 281.279 159.822 281.401 159.586C282.683 157.094 282.247 154.41 282.36 151.778C282.447 149.695 282.578 147.603 282.761 145.529C283.145 141.084 283.659 136.657 283.956 132.204C284.122 129.72 283.747 127.254 285.203 124.927C285.813 123.959 285.717 122.495 285.761 121.249C285.813 119.855 285.874 118.504 286.197 117.118C286.476 115.933 286.415 114.617 286.267 113.388C285.874 110.041 286.014 106.721 286.677 103.427C286.956 102.05 287.052 100.69 286.982 99.2784C286.799 95.5222 286.511 91.7573 286.642 88.0099C286.807 83.1556 284.967 79.0683 282.456 75.1553C281.017 72.9155 278.863 71.6344 276.291 71.2074C273.544 70.7542 270.771 70.423 267.989 70.2051C265.268 69.996 262.643 70.6757 260.541 72.3752C258.169 74.2925 255.693 76.1052 253.687 78.467C252.152 80.2797 250.382 81.8309 248.307 83.0598C247.129 83.7657 245.978 84.6546 245.089 85.683C242.185 89.0557 239.394 92.5155 236.595 95.9754C232.749 100.734 229.235 105.745 224.788 110.024C221.683 113.005 219.006 116.43 216.861 120.221C215.901 121.911 214.925 123.585 213.338 124.839C212.596 125.423 211.969 126.286 211.576 127.149C210.695 129.101 209.352 130.661 207.914 132.186C207.164 132.988 206.614 133.982 205.986 134.897C205.515 135.585 205.21 136.448 204.6 136.953C202.646 138.583 201.295 140.683 199.734 142.636C196.603 146.549 193.656 150.584 191.057 154.871C190.333 156.057 189.54 157.216 188.65 158.279C185.197 162.436 181.866 166.689 178.656 171.038C177.235 172.964 176.075 174.959 175.046 177.112C172.822 181.757 170.45 186.324 166.326 189.697C165.419 190.437 164.608 190.899 163.439 191.108C159.873 191.745 156.245 191.771 152.669 192.241C150.437 192.538 148.231 192.564 146.007 192.302C142.955 191.936 139.929 191.814 136.868 192.416C135.665 192.651 134.365 192.503 133.118 192.389C129.761 192.093 126.438 192.233 123.116 192.834C122.165 193.008 121.171 193.113 120.212 193.087C115.913 192.982 111.596 193.034 107.323 192.607C103.076 192.18 98.9428 192.764 94.8791 193.575C91.7659 194.194 88.8097 194.281 85.8098 193.479C82.217 192.512 78.6068 192.564 75.0488 193.374C71.5345 194.176 68.1422 193.906 64.7064 193.087C63.3547 192.764 61.9594 192.363 60.599 192.407C55.0441 192.564 49.4979 192.782 43.9604 193.2C41.7629 193.366 39.6264 194.237 37.4288 194.516C33.2692 195.048 29.2054 195.971 25.0981 196.764C19.8135 197.784 15.0173 199.911 10.3518 202.429C6.74157 204.381 3.82022 207.153 1.41338 210.456C0.741901 211.379 0.270997 212.39 0.349481 213.558C0.497729 215.606 -0.592327 217.68 0.471567 219.72C-0.444079 221.82 0.558772 223.084 2.33774 224.025C2.45111 224.086 2.52087 224.234 2.58192 224.356C3.72429 226.979 5.98289 228.748 7.61361 231.006C8.41589 232.112 9.43619 233.158 10.5698 233.925C15.6277 237.368 20.2583 241.359 24.9935 245.211C25.9614 245.995 26.9556 246.806 28.0718 247.32C32.1181 249.185 36.0335 251.312 39.8095 253.63C44.6493 256.593 49.0444 260.297 54.6081 261.988C55.3929 262.232 56.108 262.711 56.858 263.086C57.73 263.521 58.5672 264.079 59.4828 264.375C64.4622 265.962 68.7701 268.785 73.0431 271.661C74.3337 272.524 75.6592 273.186 77.072 273.805C81.3537 275.696 86.2197 276.263 89.9608 279.4C90.0654 279.487 90.205 279.557 90.3358 279.574C93.1786 279.94 95.4547 281.666 98.0185 282.703C99.1783 283.165 100.39 283.609 101.611 283.775C105.806 284.368 109.582 286.128 113.436 287.732C116.767 289.117 120.168 290.32 123.552 291.584C123.936 291.723 124.372 291.741 124.79 291.767C128.793 291.958 132.229 293.832 135.7 295.514C137.295 296.281 137.618 297.728 136.92 299.418C136.598 300.203 136.188 300.891 135.473 301.414C133.249 303.044 132.098 305.519 131.078 307.889C130.118 310.103 128.898 312.064 127.502 313.981C126.927 314.766 126.151 315.48 125.837 316.36C124.921 318.914 123.247 320.962 121.633 323.045C118.294 327.35 115.381 331.917 113.323 336.989C112.957 337.886 112.46 338.741 112.041 339.621C110.89 342.017 109.486 344.214 107.681 346.218C106.207 347.848 104.986 349.687 103.887 351.665C101.855 355.325 99.8759 358.977 98.4458 362.916C98.1231 363.814 97.4429 364.581 96.9371 365.408C95.1146 368.389 93.4054 371.413 92.8298 374.934C92.6205 376.198 92.0014 377.261 91.3473 378.35C89.9259 380.729 88.5132 383.161 87.7719 385.845C87.2487 387.728 86.6557 389.566 85.8098 391.327C84.7285 393.593 83.8739 395.902 83.6559 398.464C83.5164 400.103 82.9408 401.706 82.0688 403.188C81.0659 404.887 80.5253 406.822 80.4642 408.766C80.377 411.816 80.4991 414.875 80.6386 417.934C80.6822 418.892 81.0921 419.825 81.2578 420.784C81.9554 424.888 84.6151 428.043 86.4464 431.599C87.4406 433.542 88.8969 434.884 90.8677 435.826C93.0217 436.845 95.193 437.778 97.5301 438.214C98.4894 438.397 99.4137 438.571 100.338 438.928C103.713 440.235 107.123 440.026 110.602 439.172C114.334 438.248 117.666 436.392 120.674 434.257C125.793 430.623 130.964 427.163 136.598 424.392C138.255 423.581 139.711 422.561 140.644 420.906C141.211 419.912 142.17 419.319 143.138 418.727C146.469 416.688 149.539 414.352 152.233 411.467C153.925 409.655 155.87 407.99 158.085 406.787C160.073 405.715 161.782 404.504 163.038 402.5C163.971 401.018 165.393 399.632 166.919 398.769C170.241 396.896 172.945 394.273 175.805 391.858C179.11 389.07 182.432 386.316 185.825 383.64C187.569 382.263 189.749 381.383 191.118 379.64C194.842 374.917 200.178 371.919 204.042 367.352C205.01 366.21 206.414 365.426 207.669 364.554C207.931 364.371 208.541 364.389 208.803 364.581C209.073 364.781 209.195 365.286 209.222 365.67C209.239 366.071 209.187 366.594 208.951 366.864C207.111 368.982 206.318 371.736 204.643 373.94C203.257 375.771 202.463 377.81 201.914 379.98C200.85 384.154 199.83 388.346 198.696 392.512C198.182 394.386 197.519 396.207 196.577 397.942C195.06 400.713 193.629 403.554 193.193 406.752C192.984 408.26 193.141 409.777 192.714 411.302C191.205 416.714 190.612 422.222 191.65 427.817C192.007 429.734 192.496 431.634 192.731 433.56C192.941 435.311 193.682 436.784 194.711 438.1C196.594 440.514 198.478 442.946 200.981 444.793C204.138 447.129 207.286 449.308 211.576 448.846C213.756 448.611 216.006 449.038 218.212 448.968C220.698 448.889 223.07 448.567 225.258 446.99C227.944 445.055 231.005 443.643 233.761 441.804C236.639 439.887 239.9 438.414 241.915 435.381C244.295 434.309 245.42 431.869 247.408 430.353C251.62 427.137 255.37 423.442 258.605 419.232C259.033 418.683 259.443 418.117 259.914 417.611C260.297 417.21 260.812 416.888 261.379 417.245C261.788 417.498 261.727 417.977 261.623 418.387C260.916 421.219 260.393 424.113 259.443 426.867C258.37 429.952 257.978 433.08 257.908 436.305C257.882 437.699 257.568 438.998 256.992 440.331C255.117 444.689 253.809 449.194 253.801 454.023C253.801 456.524 253.539 459.016 253.146 461.509C252.702 464.35 251.917 467.261 253.504 470.067C253.757 470.511 253.67 471.165 253.67 471.714C253.67 473.405 253.905 475.052 254.638 476.594C255.135 477.64 255.248 478.677 254.952 479.836C254.411 481.928 254.76 484.02 255.518 485.981C257.071 490.007 258.667 494.016 260.402 497.964C261.858 501.293 263.506 504.526 266.916 506.4C267.622 506.792 268.224 507.463 268.712 508.125C269.489 509.171 270.491 509.851 271.616 510.444C273.099 511.21 274.529 512.082 276.012 512.858C277.729 513.755 279.395 514.914 281.235 515.411C287.758 517.18 294.316 518.435 300.289 513.72C300.507 513.546 300.76 513.398 301.022 513.328C302.6 512.858 303.699 511.89 304.248 510.313C304.606 509.276 305.347 508.77 306.428 508.648C306.821 508.605 307.362 508.448 307.536 508.16C308.609 506.339 311.015 505.764 311.713 503.594C312.027 502.609 312.977 502.156 313.727 501.537C315.881 499.768 318.123 497.972 319.37 495.445C320.931 492.29 322.866 489.484 325.291 486.957C325.936 486.286 326.233 485.266 326.677 484.403C328.273 481.318 329.747 478.172 331.831 475.374C332.328 474.712 332.86 473.989 333.078 473.213C333.968 470.067 335.851 467.461 337.491 464.716C337.988 463.888 338.685 463.156 338.799 462.128C339.296 457.5 341.982 453.63 343.359 449.29C344.432 445.935 346.586 442.824 348.731 439.957C350.022 438.231 350.824 436.401 351.626 434.51C352.324 432.845 352.804 431.093 353.466 429.411C354.182 427.599 354.984 425.838 354.923 423.799C354.905 423.154 355.141 422.387 355.516 421.856C357.844 418.544 359.475 414.823 361.646 411.45C363.696 408.269 365.091 404.826 366.381 401.358C366.948 399.833 368.126 398.43 367.986 396.678C367.881 395.458 368.457 394.56 369.059 393.602C371.282 390.028 371.588 385.653 373.811 382.072C373.881 381.967 373.881 381.801 373.864 381.662C373.698 379.562 374.866 377.949 375.8 376.241C376.401 375.143 377.09 374.054 377.456 372.877C379.663 365.827 383.735 359.552 385.846 352.467C386.002 351.944 386.386 351.491 386.657 351.011C387.825 348.963 389.011 346.915 390.197 344.893C391.645 342.436 393.275 339.812 395.909 338.392C400.714 335.804 404.464 331.716 409.312 329.206C410.053 328.823 410.725 328.317 411.152 327.55C411.85 326.296 413.027 325.468 414.135 324.657C416.053 323.245 417.806 321.677 419.376 319.89C419.829 319.367 420.378 318.923 420.937 318.504C423.152 316.84 425.41 315.236 427.608 313.554C429.038 312.456 430.529 311.402 431.602 309.911C432.936 308.055 434.689 306.73 436.642 305.589C438.09 304.743 439.433 303.741 440.889 302.922C442.624 301.946 444.255 300.734 445.232 299.07C447.063 295.941 450.56 294.669 452.714 291.95C455.766 291.017 457.667 288.455 460.074 286.625C463.178 284.28 465.716 281.073 469.039 279.156C472.474 277.178 475.309 274.624 478.361 272.236C479.355 271.461 480.401 270.877 481.003 269.7C481.517 268.689 482.32 267.809 483.331 267.356C487.203 265.604 490.055 262.432 493.517 260.122C496.055 258.423 498.706 256.837 501.025 254.876C504.635 251.835 507.714 248.2 511.411 245.229C514.655 242.623 517.795 239.886 521.056 237.298C524.605 234.483 528.965 232.618 531.311 228.409C531.503 228.069 531.93 227.86 532.253 227.598C534.093 226.108 535.872 224.539 537.791 223.153C541.941 220.147 545.639 216.46 550.522 214.517C551.019 214.316 551.508 213.95 551.865 213.55C553.461 211.78 555.101 210.107 557.403 209.236C557.882 209.053 558.318 208.556 558.606 208.103C559.836 206.124 561.876 205.122 563.629 203.771C566.254 201.732 568.862 199.667 571.39 197.514C573.187 195.989 574.556 194.002 576.666 192.817C578.602 191.727 580.486 190.533 582.352 189.331C583.765 188.424 585.134 187.448 585.936 185.897C586.869 184.084 588.43 182.934 590.087 181.879C593.497 179.709 596.872 177.53 599.802 174.681C602.392 172.162 604.702 169.399 607.336 166.898C610.65 163.761 613.528 160.161 616.545 156.728C617.086 156.118 617.504 155.351 617.801 154.584C618.402 153.024 619.022 151.455 619.379 149.825C619.946 147.254 620.356 144.675 619.545 142.008L619.501 141.991Z" fill="#FF774C"/>
</svg>
