<svg width="30" height="26" viewBox="0 0 30 26" fill="none" xmlns="http://www.w3.org/2000/svg">
<path d="M29.9759 6.93307C29.9134 6.72669 29.7788 6.59818 29.5818 6.52839C29.383 6.45775 29.1822 6.41137 28.9678 6.44371C28.856 6.46073 28.7425 6.46881 28.6264 6.46243C28.5142 6.45605 28.4032 6.50498 28.2889 6.51818C28.1429 6.5352 27.9965 6.56669 27.8555 6.60881C27.707 6.65307 27.5631 6.71009 27.4053 6.71264C27.3732 6.71307 27.3386 6.72626 27.3095 6.74201C27.2057 6.79818 27.0926 6.81307 26.9783 6.82371C26.8846 6.83264 26.7905 6.83647 26.6973 6.84967C26.5382 6.87179 26.3829 6.92328 26.2179 6.90541C26.1669 6.89988 26.109 6.91562 26.0609 6.9369C25.8812 7.01605 25.6862 7.04116 25.501 7.09988C25.1668 7.20584 24.8322 7.31094 24.4963 7.41094C24.2571 7.48243 24.0199 7.5569 23.7744 7.60371C23.5891 7.63903 23.4132 7.70371 23.2414 7.78882C23.0178 7.89988 22.7688 7.94244 22.5275 8.00116C22.3844 8.03563 22.2338 8.03861 22.0865 8.05648C22.0599 8.05988 22.0291 8.05946 22.008 8.0735C21.8654 8.16797 21.6962 8.20031 21.5481 8.28244C21.3106 8.41478 21.0523 8.48797 20.7856 8.53265C20.6464 8.55605 20.5071 8.5752 20.3776 8.64286C20.1915 8.73946 19.9936 8.80584 19.7907 8.85946C19.6742 8.8901 19.5582 8.92712 19.4649 9.01393C19.4371 9.03989 19.3944 9.05478 19.3337 9.04286C19.3172 8.86542 19.3911 8.71648 19.443 8.56457C19.4843 8.44371 19.5172 8.31776 19.5873 8.20839C19.6054 8.00627 19.7265 7.84414 19.805 7.66754C19.8725 7.51563 20.0016 7.39307 20.051 7.22711C20.1156 7.17605 20.1202 7.1003 20.1371 7.02711C20.1907 6.7969 20.2346 6.56413 20.327 6.34371C20.3565 6.27349 20.4194 6.2169 20.4312 6.14881C20.4536 6.01988 20.5228 5.90839 20.5443 5.78115C20.5536 5.72668 20.5704 5.6769 20.5983 5.62881C20.6215 5.58839 20.643 5.542 20.6481 5.49647C20.6726 5.26668 20.7742 5.06838 20.8869 4.87434C20.9422 4.77902 20.9844 4.67732 21.0004 4.57008C21.0316 4.36625 21.0941 4.17136 21.1705 3.98412C21.2363 3.82285 21.2848 3.65051 21.3971 3.50923C21.4291 3.46923 21.4346 3.40838 21.4565 3.35902C21.4895 3.28497 21.4911 3.19561 21.5481 3.13433C21.6009 3.07689 21.6232 3.0088 21.6498 2.93816C21.7232 2.74114 21.7954 2.54369 21.854 2.34114C21.8802 2.25093 21.9224 2.16454 21.9595 2.07774C22.0253 1.92412 22.1237 1.77986 22.1249 1.60114C22.1249 1.56369 22.1473 1.52241 22.1697 1.49007C22.2376 1.39178 22.2654 1.28199 22.2756 1.16497C22.2827 1.08369 22.2958 1.00369 22.3393 0.930923C22.3562 0.902838 22.36 0.866668 22.3688 0.834327C22.4173 0.659008 22.3608 0.500284 22.2962 0.340709C22.2583 0.247517 22.1975 0.181134 22.1165 0.127091C21.9882 0.0411332 21.8418 0.00453729 21.695 0.00113303C21.5511 -0.00227124 21.3954 -0.00610104 21.2831 0.120282C21.035 0.260283 20.8291 0.456028 20.6169 0.642412C20.5603 0.692199 20.5046 0.737731 20.4392 0.774327C20.2974 0.853476 20.1599 0.944115 20.0514 1.06454C19.8578 1.28029 19.6662 1.49816 19.4999 1.73816C19.4198 1.85348 19.3202 1.95391 19.2079 2.04369C19.0505 2.16965 18.8856 2.28795 18.7573 2.4488C18.6725 2.55476 18.5885 2.65986 18.5201 2.77774C18.483 2.84199 18.4383 2.90242 18.3906 2.95944C18.2733 3.09902 18.1497 3.23306 18.0336 3.37391C17.9687 3.45306 17.902 3.52753 17.8184 3.58753C17.7016 3.67178 17.6108 3.78029 17.5433 3.90838C17.4986 3.99264 17.4433 4.06923 17.3762 4.13732C17.2568 4.25774 17.1906 4.4203 17.0665 4.53732C17.0311 4.64498 16.953 4.71945 16.8737 4.79391C16.7956 4.86753 16.7226 4.94626 16.6475 5.02285C16.6146 5.05689 16.5876 5.10072 16.5483 5.1237C16.4724 5.16796 16.4281 5.23817 16.399 5.31136C16.3091 5.53732 16.1521 5.71222 15.9935 5.88711C15.8842 6.00754 15.777 6.12966 15.6686 6.25051C15.5462 6.38626 15.428 6.52584 15.2985 6.65392C15.2399 6.71222 15.1913 6.77222 15.1487 6.84286C15.0656 6.98116 14.9436 7.09222 14.8677 7.2369C14.8559 7.25988 14.831 7.2769 14.8099 7.29307C14.6639 7.40711 14.5546 7.55307 14.4504 7.70371C14.3765 7.81009 14.2926 7.90627 14.1892 7.98499C14.0926 8.05861 14.0018 8.13818 13.9305 8.24073C13.8765 8.31818 13.8082 8.38584 13.728 8.43818C13.6693 8.47648 13.6195 8.45563 13.6174 8.38329C13.6115 8.19988 13.6111 8.01605 13.6094 7.83222C13.6094 7.81903 13.6103 7.80371 13.6162 7.79222C13.6782 7.67052 13.6571 7.53946 13.6626 7.41094C13.6668 7.30924 13.6731 7.20711 13.682 7.10584C13.7006 6.88882 13.7255 6.67264 13.7398 6.4552C13.7478 6.33392 13.7297 6.21349 13.8001 6.09988C13.8297 6.05264 13.825 5.98115 13.8271 5.9203C13.8297 5.85222 13.8326 5.78626 13.8482 5.7186C13.8617 5.66073 13.8588 5.59647 13.8516 5.53647C13.8326 5.37307 13.8394 5.21094 13.8714 5.05009C13.885 4.98285 13.8896 4.91647 13.8862 4.84753C13.8774 4.66413 13.8634 4.4803 13.8698 4.29732C13.8778 4.06029 13.7887 3.86072 13.6672 3.66966C13.5976 3.56029 13.4934 3.49774 13.3689 3.47689C13.236 3.45476 13.1018 3.43859 12.9672 3.42795C12.8355 3.41774 12.7085 3.45093 12.6068 3.53391C12.4921 3.62753 12.3722 3.71604 12.2752 3.83136C12.2009 3.91987 12.1153 3.99561 12.0148 4.05561C11.9579 4.09008 11.9022 4.13349 11.8591 4.1837C11.7186 4.34838 11.5836 4.51732 11.4481 4.68625C11.2621 4.9186 11.092 5.16328 10.8768 5.37221C10.7266 5.51775 10.5971 5.68498 10.4933 5.87009C10.4468 5.95264 10.3996 6.03434 10.3228 6.09562C10.2869 6.12413 10.2565 6.16626 10.2376 6.20839C10.1949 6.30371 10.13 6.37988 10.0603 6.45435C10.024 6.49349 9.99746 6.54201 9.96708 6.58669C9.94429 6.6203 9.92953 6.66243 9.89999 6.68711C9.80547 6.76669 9.74007 6.86924 9.66454 6.96456C9.51305 7.15562 9.37043 7.35265 9.24469 7.56201C9.20967 7.61988 9.17127 7.67648 9.12823 7.72839C8.96113 7.93137 8.79995 8.13903 8.64467 8.35137C8.57589 8.44542 8.51977 8.54286 8.46998 8.64797C8.36238 8.87478 8.2476 9.09776 8.04802 9.26244C8.00414 9.29861 7.96489 9.32116 7.90835 9.33138C7.73577 9.36244 7.56024 9.36372 7.38723 9.3867C7.27921 9.40116 7.17246 9.40244 7.06486 9.38967C6.91717 9.3718 6.77075 9.36584 6.62265 9.39521C6.56442 9.4067 6.50155 9.39946 6.44121 9.39393C6.27875 9.37946 6.11799 9.38627 5.95722 9.41563C5.91123 9.42414 5.86312 9.42925 5.81671 9.42797C5.60868 9.42287 5.39982 9.42542 5.19306 9.40457C4.98756 9.38372 4.78756 9.41223 4.59092 9.4518C4.44029 9.48202 4.29724 9.48627 4.15209 9.44712C3.97824 9.39989 3.80355 9.40244 3.63139 9.44201C3.46135 9.48116 3.2972 9.46797 3.13095 9.42797C3.06555 9.41223 2.99804 9.39265 2.93221 9.39478C2.66342 9.40244 2.39506 9.41308 2.12712 9.4335C2.02078 9.44159 1.9174 9.48414 1.81107 9.49776C1.6098 9.52372 1.41317 9.56882 1.21442 9.60755C0.958718 9.65733 0.726642 9.76116 0.500895 9.88414C0.326205 9.97946 0.184849 10.1148 0.0683891 10.2761C0.0358984 10.3212 0.0131128 10.3705 0.0169104 10.4275C0.0240836 10.5275 -0.028661 10.6288 0.0228178 10.7284C-0.0214877 10.831 0.0270373 10.8927 0.113117 10.9386C0.118602 10.9416 0.121978 10.9488 0.124931 10.9548C0.180208 11.0829 0.289495 11.1693 0.368401 11.2795C0.407221 11.3335 0.45659 11.3846 0.511444 11.422C0.756179 11.5901 0.980238 11.785 1.20936 11.9731C1.2562 12.0114 1.3043 12.051 1.35831 12.0761C1.5541 12.1671 1.74356 12.271 1.92627 12.3842C2.16045 12.5288 2.37312 12.7097 2.64233 12.7922C2.6803 12.8042 2.7149 12.8276 2.75119 12.8459C2.79339 12.8671 2.8339 12.8944 2.8782 12.9088C3.11914 12.9863 3.32759 13.1242 3.53434 13.2646C3.59679 13.3067 3.66093 13.339 3.72929 13.3693C3.93647 13.4616 4.17192 13.4893 4.35294 13.6425C4.358 13.6467 4.36476 13.6501 4.37108 13.651C4.50864 13.6688 4.61877 13.7531 4.74283 13.8037C4.79895 13.8263 4.8576 13.848 4.91668 13.8561C5.11964 13.885 5.30234 13.971 5.48885 14.0493C5.65004 14.1169 5.8146 14.1756 5.97832 14.2373C5.99689 14.2442 6.01798 14.245 6.03824 14.2463C6.23192 14.2556 6.39817 14.3471 6.56611 14.4293C6.64332 14.4667 6.65894 14.5373 6.62518 14.6199C6.60957 14.6582 6.58973 14.6918 6.55513 14.7174C6.44754 14.7969 6.39184 14.9178 6.34247 15.0335C6.29605 15.1416 6.23698 15.2374 6.16947 15.331C6.14162 15.3693 6.10406 15.4042 6.08887 15.4471C6.04457 15.5718 5.96355 15.6718 5.88549 15.7735C5.72388 15.9837 5.58295 16.2067 5.48336 16.4544C5.46564 16.4982 5.44159 16.5399 5.42134 16.5829C5.36564 16.6999 5.2977 16.8071 5.21036 16.905C5.13905 16.9846 5.07997 17.0744 5.02681 17.171C4.92849 17.3497 4.83271 17.528 4.76351 17.7203C4.74789 17.7642 4.71498 17.8016 4.69051 17.842C4.60232 17.9876 4.51961 18.1352 4.49176 18.3071C4.48164 18.3689 4.45168 18.4208 4.42003 18.474C4.35125 18.5901 4.2829 18.7089 4.24703 18.8399C4.22171 18.9318 4.19302 19.0216 4.15209 19.1076C4.09977 19.2182 4.05841 19.331 4.04787 19.4561C4.04111 19.5361 4.01327 19.6144 3.97107 19.6867C3.92254 19.7697 3.89638 19.8642 3.89343 19.9591C3.88921 20.108 3.89512 20.2574 3.90187 20.4067C3.90398 20.4535 3.92381 20.4991 3.93183 20.5459C3.96558 20.7463 4.09428 20.9003 4.18289 21.074C4.231 21.1689 4.30146 21.2344 4.39682 21.2804C4.50105 21.3301 4.60612 21.3757 4.7192 21.3969C4.76561 21.4059 4.81034 21.4144 4.85507 21.4318C5.01837 21.4957 5.18335 21.4855 5.35171 21.4438C5.53231 21.3986 5.6935 21.308 5.83907 21.2038C6.08676 21.0263 6.33698 20.8574 6.60957 20.7221C6.68974 20.6825 6.76021 20.6327 6.80536 20.5518C6.83278 20.5033 6.8792 20.4744 6.92603 20.4455C7.08722 20.3459 7.23575 20.2318 7.36614 20.091C7.448 20.0025 7.54209 19.9212 7.64927 19.8625C7.74548 19.8101 7.82818 19.751 7.88894 19.6531C7.93409 19.5808 8.00287 19.5131 8.07671 19.471C8.23748 19.3795 8.36828 19.2514 8.50669 19.1335C8.66661 18.9974 8.82737 18.8629 8.99151 18.7323C9.07591 18.665 9.18139 18.622 9.24764 18.5369C9.42782 18.3063 9.68606 18.1599 9.87298 17.9369C9.91982 17.8812 9.98776 17.8429 10.0485 17.8003C10.0612 17.7914 10.0907 17.7923 10.1034 17.8016C10.1165 17.8114 10.1224 17.8361 10.1236 17.8548C10.1245 17.8744 10.1219 17.8999 10.1105 17.9131C10.0215 18.0165 9.98311 18.151 9.9021 18.2586C9.83501 18.348 9.79661 18.4476 9.77003 18.5535C9.71855 18.7574 9.66918 18.962 9.61432 19.1654C9.58943 19.2569 9.55736 19.3459 9.51179 19.4306C9.43837 19.5659 9.36917 19.7046 9.34807 19.8608C9.33794 19.9344 9.34554 20.0084 9.32486 20.0829C9.25186 20.3472 9.22317 20.6161 9.27338 20.8893C9.29068 20.9829 9.31431 21.0757 9.3257 21.1697C9.33583 21.2552 9.3717 21.3272 9.42149 21.3914C9.51263 21.5093 9.60377 21.628 9.72488 21.7182C9.87762 21.8323 10.03 21.9386 10.2376 21.9161C10.343 21.9046 10.4519 21.9255 10.5587 21.9221C10.6789 21.9182 10.7937 21.9025 10.8996 21.8255C11.0296 21.731 11.1777 21.6621 11.311 21.5723C11.4503 21.4786 11.6081 21.4067 11.7055 21.2586C11.8207 21.2063 11.8752 21.0872 11.9714 21.0131C12.1752 20.8561 12.3566 20.6757 12.5132 20.4701C12.5338 20.4433 12.5537 20.4157 12.5765 20.391C12.595 20.3714 12.6199 20.3557 12.6474 20.3731C12.6672 20.3855 12.6642 20.4089 12.6592 20.4289C12.625 20.5672 12.5997 20.7084 12.5537 20.8429C12.5018 20.9935 12.4828 21.1463 12.4794 21.3038C12.4781 21.3718 12.463 21.4352 12.4351 21.5004C12.3444 21.7131 12.2811 21.9331 12.2807 22.1689C12.2807 22.291 12.268 22.4127 12.249 22.5344C12.2275 22.6731 12.1895 22.8152 12.2663 22.9523C12.2786 22.974 12.2743 23.0059 12.2743 23.0327C12.2743 23.1153 12.2857 23.1957 12.3212 23.271C12.3452 23.3221 12.3507 23.3727 12.3364 23.4293C12.3102 23.5314 12.3271 23.6336 12.3638 23.7293C12.4389 23.9259 12.5161 24.1216 12.6001 24.3144C12.6706 24.477 12.7503 24.6348 12.9153 24.7263C12.9495 24.7455 12.9786 24.7782 13.0022 24.8106C13.0398 24.8616 13.0883 24.8948 13.1427 24.9238C13.2145 24.9612 13.2837 25.0038 13.3554 25.0416C13.4385 25.0855 13.5191 25.1421 13.6081 25.1663C13.9238 25.2527 14.2411 25.314 14.5301 25.0838C14.5407 25.0753 14.5529 25.068 14.5656 25.0646C14.6419 25.0416 14.6951 24.9944 14.7217 24.9174C14.739 24.8667 14.7749 24.8421 14.8272 24.8361C14.8462 24.834 14.8723 24.8263 14.8808 24.8123C14.9327 24.7233 15.0491 24.6953 15.0829 24.5893C15.0981 24.5412 15.1441 24.5191 15.1804 24.4889C15.2846 24.4025 15.393 24.3148 15.4534 24.1914C15.5289 24.0374 15.6226 23.9004 15.7399 23.777C15.7711 23.7442 15.7854 23.6944 15.807 23.6523C15.8842 23.5016 15.9555 23.348 16.0563 23.2114C16.0804 23.1791 16.1061 23.1438 16.1167 23.1059C16.1597 22.9523 16.2509 22.825 16.3302 22.691C16.3542 22.6506 16.388 22.6148 16.3935 22.5646C16.4175 22.3387 16.5475 22.1497 16.6142 21.9378C16.6661 21.774 16.7703 21.6221 16.8741 21.4821C16.9365 21.3978 16.9754 21.3084 17.0142 21.2161C17.0479 21.1348 17.0711 21.0493 17.1032 20.9672C17.1378 20.8786 17.1766 20.7927 17.1737 20.6931C17.1728 20.6616 17.1842 20.6242 17.2024 20.5982C17.315 20.4365 17.3939 20.2548 17.499 20.0901C17.5982 19.9348 17.6657 19.7667 17.7281 19.5974C17.7556 19.5229 17.8125 19.4544 17.8058 19.3689C17.8007 19.3093 17.8286 19.2655 17.8577 19.2186C17.9653 19.0442 17.98 18.8306 18.0876 18.6557C18.091 18.6506 18.091 18.6425 18.0902 18.6357C18.0822 18.5331 18.1387 18.4544 18.1838 18.371C18.213 18.3174 18.2463 18.2642 18.264 18.2067C18.3708 17.8625 18.5678 17.5561 18.6699 17.2101C18.6775 17.1846 18.6961 17.1625 18.7092 17.1391C18.7657 17.0391 18.8231 16.9391 18.8805 16.8403C18.9505 16.7203 19.0295 16.5922 19.1569 16.5229C19.3894 16.3965 19.5708 16.1969 19.8054 16.0744C19.8413 16.0557 19.8738 16.031 19.8945 15.9935C19.9282 15.9322 19.9852 15.8918 20.0388 15.8522C20.1316 15.7833 20.2164 15.7067 20.2924 15.6195C20.3143 15.5939 20.3409 15.5722 20.3679 15.5518C20.4751 15.4705 20.5844 15.3922 20.6907 15.3101C20.7599 15.2565 20.8321 15.205 20.884 15.1322C20.9485 15.0416 21.0333 14.9769 21.1278 14.9212C21.1979 14.8799 21.2629 14.831 21.3333 14.791C21.4173 14.7433 21.4962 14.6842 21.5435 14.6029C21.6321 14.4501 21.8013 14.388 21.9055 14.2552C22.0532 14.2097 22.1452 14.0846 22.2616 13.9952C22.4119 13.8808 22.5346 13.7242 22.6954 13.6305C22.8617 13.5339 22.9988 13.4093 23.1465 13.2927C23.1946 13.2548 23.2452 13.2263 23.2743 13.1688C23.2992 13.1195 23.3381 13.0765 23.387 13.0544C23.5744 12.9688 23.7123 12.8139 23.8798 12.7012C24.0026 12.6182 24.1309 12.5407 24.2432 12.445C24.4178 12.2965 24.5668 12.119 24.7457 11.9739C24.9027 11.8467 25.0546 11.7131 25.2124 11.5867C25.3841 11.4493 25.5951 11.3582 25.7086 11.1527C25.7179 11.1361 25.7386 11.1259 25.7542 11.1131C25.8432 11.0403 25.9293 10.9637 26.0221 10.8961C26.223 10.7493 26.4019 10.5693 26.6382 10.4744C26.6622 10.4646 26.6859 10.4467 26.7032 10.4271C26.7804 10.3407 26.8597 10.259 26.9711 10.2165C26.9943 10.2075 27.0154 10.1833 27.0293 10.1612C27.0888 10.0646 27.1876 10.0156 27.2724 9.94968C27.3994 9.8501 27.5256 9.74925 27.6479 9.64414C27.7348 9.56967 27.8011 9.47265 27.9032 9.41478C27.9969 9.36159 28.088 9.30329 28.1783 9.24457C28.2467 9.20031 28.3129 9.15265 28.3517 9.07691C28.3969 8.9884 28.4724 8.93223 28.5526 8.88074C28.7176 8.77478 28.8809 8.6684 29.0227 8.52925C29.148 8.40627 29.2598 8.27137 29.3872 8.14924C29.5476 7.99605 29.6868 7.82031 29.8328 7.65265C29.859 7.62286 29.8792 7.58541 29.8936 7.54797C29.9227 7.4718 29.9527 7.3952 29.97 7.31562C29.9974 7.19009 30.0172 7.06413 29.978 6.93392L29.9759 6.93307Z" fill="#FF774C"/>
</svg>
