<svg width="55" height="46" viewBox="0 0 55 46" fill="none" xmlns="http://www.w3.org/2000/svg">
<g filter="url(#filter0_d_2046_6412)">
<path d="M17.33 30.5801V24.4551H12.205C11.3925 24.4551 10.8717 24.3717 10.6425 24.2051C10.4134 24.0384 10.2988 23.7884 10.2988 23.4551C10.2988 22.9134 10.5071 22.403 10.9238 21.9238C11.3404 21.4447 11.8925 21.2051 12.58 21.2051H17.33V15.0488C17.33 14.778 17.4967 14.4967 17.83 14.2051C18.1634 13.9134 18.6529 13.7676 19.2988 13.7676C19.9863 13.7676 20.4863 13.9238 20.7988 14.2363C21.1113 14.528 21.2675 14.7988 21.2675 15.0488V21.2051H26.3925C27.205 21.2051 27.7259 21.2884 27.955 21.4551C28.205 21.6217 28.33 21.8717 28.33 22.2051C28.33 22.7051 28.1217 23.2051 27.705 23.7051C27.2884 24.2051 26.7259 24.4551 26.0175 24.4551H21.2675V30.5801C21.2675 30.8509 21.1009 31.1322 20.7675 31.4238C20.4342 31.6947 19.9446 31.8301 19.2988 31.8301C18.6529 31.8301 18.1634 31.6947 17.83 31.4238C17.4967 31.1322 17.33 30.8509 17.33 30.5801Z" fill="#FF774C"/>
<path d="M34.205 16.1738L39.8925 10.9551C40.1009 10.7884 40.3509 10.6426 40.6425 10.5176C40.955 10.3926 41.33 10.3301 41.7675 10.3301C42.5592 10.3301 43.1425 10.5072 43.5175 10.8613C43.9134 11.1947 44.1113 11.5176 44.1113 11.8301V33.9551C44.1113 34.2884 43.9029 34.6217 43.4863 34.9551C43.0904 35.2884 42.5175 35.4551 41.7675 35.4551C40.9967 35.4551 40.4134 35.2884 40.0175 34.9551C39.6217 34.6217 39.4238 34.2884 39.4238 33.9551V17.6738L38.1113 18.8613C37.6946 19.278 37.1425 19.5488 36.455 19.6738C35.7884 19.7988 35.0904 19.6738 34.3613 19.2988C33.5071 18.8405 33.1113 18.3613 33.1738 17.8613C33.2363 17.3405 33.58 16.778 34.205 16.1738Z" fill="#FF774C"/>
</g>
<defs>
<filter id="filter0_d_2046_6412" x="6.29877" y="6.33008" width="41.8125" height="33.125" filterUnits="userSpaceOnUse" color-interpolation-filters="sRGB">
<feFlood flood-opacity="0" result="BackgroundImageFix"/>
<feColorMatrix in="SourceAlpha" type="matrix" values="0 0 0 0 0 0 0 0 0 0 0 0 0 0 0 0 0 0 127 0" result="hardAlpha"/>
<feOffset/>
<feGaussianBlur stdDeviation="2"/>
<feComposite in2="hardAlpha" operator="out"/>
<feColorMatrix type="matrix" values="0 0 0 0 0.0901961 0 0 0 0 0.0941176 0 0 0 0 0.101961 0 0 0 0.2 0"/>
<feBlend mode="normal" in2="BackgroundImageFix" result="effect1_dropShadow_2046_6412"/>
<feBlend mode="normal" in="SourceGraphic" in2="effect1_dropShadow_2046_6412" result="shape"/>
</filter>
</defs>
</svg>
