<svg width="40" height="40" viewBox="0 0 40 40" fill="none" xmlns="http://www.w3.org/2000/svg">
<g clip-path="url(#clip0_2816_562)">
<path d="M19.9247 25.4799C18.6791 25.4799 17.6699 24.4708 17.6699 23.2252C17.6699 19.5549 19.9047 17.7739 21.5358 16.4732C22.8487 15.4261 23.6054 14.7757 23.8807 13.5767C24.1038 12.6055 23.9348 11.7833 23.3642 11.0665C22.6228 10.1361 21.2405 9.50954 19.9247 9.50954C18.2092 9.50954 16.7139 10.608 16.2032 12.2428C16.0854 12.6178 16.0266 13.0099 16.0266 13.4086C16.0266 14.6542 15.0174 15.6634 13.7718 15.6634C12.5263 15.6634 11.5171 14.6542 11.5171 13.4086C11.5171 12.5532 11.6462 11.7073 11.8997 10.8966C13.0019 7.37059 16.2278 5 19.9256 5C22.6228 5 25.2924 6.24748 26.8921 8.25731C28.3123 10.0402 28.8041 12.2884 28.2763 14.5859C27.6345 17.378 25.8117 18.8315 24.3468 19.9992C22.844 21.1973 22.1794 21.7869 22.1794 23.2242C22.1794 24.4698 21.1703 25.4799 19.9247 25.4799Z" fill="#FC2D4C"/>
<path d="M19.956 28.1455C18.063 28.1455 16.5288 29.6797 16.5288 31.5728C16.5288 33.4658 18.063 35 19.956 35C21.8491 35 23.3832 33.4658 23.3832 31.5728C23.3832 29.6797 21.8491 28.1455 19.956 28.1455Z" fill="#FC2D4C"/>
</g>
<defs>
<clipPath id="clip0_2816_562">
<rect width="40" height="40" fill="white"/>
</clipPath>
</defs>
</svg>
