<svg width="32" height="32" viewBox="0 0 32 32" fill="none" xmlns="http://www.w3.org/2000/svg">
<path d="M18.5206 14.9213C18.3504 14.9213 18.2238 14.7641 18.2601 14.5978L20.3052 5.22654C20.6008 3.87206 18.8897 3.02208 17.989 4.076L8.75737 14.8779C8.01787 15.7432 8.63274 17.0775 9.77096 17.0775H13.4791C13.6493 17.0775 13.776 17.2347 13.7397 17.401L11.6945 26.7723C11.3989 28.1268 13.11 28.9767 14.0108 27.9228L23.2424 17.1209C23.9819 16.2557 23.367 14.9213 22.2288 14.9213H18.5206Z" fill="#17181A"/>
<path fill-rule="evenodd" clip-rule="evenodd" d="M29.5198 2.48233C29.9884 2.95096 29.9884 3.71076 29.5198 4.17939L26.4787 7.22045C26.0101 7.68908 25.2503 7.68908 24.7816 7.22045C24.313 6.75183 24.313 5.99203 24.7816 5.5234L27.8227 2.48233C28.2913 2.0137 29.0511 2.0137 29.5198 2.48233Z" fill="#17181A"/>
<path fill-rule="evenodd" clip-rule="evenodd" d="M29.5198 29.5191C29.9884 29.0505 29.9884 28.2907 29.5198 27.8221L26.4787 24.781C26.0101 24.3124 25.2503 24.3124 24.7816 24.781C24.313 25.2496 24.313 26.0094 24.7816 26.4781L27.8227 29.5191C28.2913 29.9878 29.0511 29.9878 29.5198 29.5191Z" fill="#17181A"/>
<path fill-rule="evenodd" clip-rule="evenodd" d="M2.48023 2.48233C2.0116 2.95096 2.0116 3.71076 2.48023 4.17939L5.5213 7.22045C5.98993 7.68908 6.74972 7.68908 7.21835 7.22045C7.68698 6.75183 7.68698 5.99203 7.21835 5.5234L4.17729 2.48233C3.70866 2.0137 2.94886 2.0137 2.48023 2.48233Z" fill="#17181A"/>
<path fill-rule="evenodd" clip-rule="evenodd" d="M2.48023 29.5191C2.0116 29.0505 2.0116 28.2907 2.48023 27.8221L5.5213 24.781C5.98993 24.3124 6.74972 24.3124 7.21835 24.781C7.68698 25.2496 7.68698 26.0094 7.21835 26.4781L4.17729 29.5191C3.70866 29.9878 2.94886 29.9878 2.48023 29.5191Z" fill="#17181A"/>
</svg>
