<svg width="24" height="24" viewBox="0 0 24 24" fill="none" xmlns="http://www.w3.org/2000/svg">
<g clip-path="url(#clip0_901_26462)">
<path fill-rule="evenodd" clip-rule="evenodd" d="M8.92794 4.66533C7.71019 5.25883 6.72245 6.13087 6.00155 7.16701C5.71767 7.57503 5.15677 7.67566 4.74876 7.39178C4.34074 7.1079 4.24011 6.54701 4.52399 6.13899C5.41588 4.85709 6.63829 3.77884 8.13935 3.04727C12.8329 0.759778 18.4921 2.71024 20.7796 7.40375C20.9973 7.85057 20.8117 8.38931 20.3648 8.60708C19.918 8.82484 19.3793 8.63916 19.1615 8.19235C17.3095 4.39247 12.7278 2.81337 8.92794 4.66533Z" fill="black"/>
<path fill-rule="evenodd" clip-rule="evenodd" d="M21.943 4.32994C22.4311 4.4239 22.7506 4.89575 22.6566 5.38384L21.8703 9.46821C21.7764 9.9563 21.3045 10.2758 20.8164 10.1819L16.7321 9.39559C16.244 9.30163 15.9245 8.82978 16.0184 8.34168C16.1124 7.85359 16.5842 7.53408 17.0723 7.62804L20.2729 8.24417L20.8891 5.04358C20.983 4.55549 21.4549 4.23598 21.943 4.32994Z" fill="black"/>
<path fill-rule="evenodd" clip-rule="evenodd" d="M15.0855 19.3327C16.3032 18.7392 17.291 17.8672 18.0119 16.831C18.2958 16.423 18.8567 16.3224 19.2647 16.6063C19.6727 16.8901 19.7733 17.451 19.4894 17.8591C18.5975 19.141 17.3751 20.2192 15.8741 20.9508C11.1806 23.2383 5.52135 21.2878 3.23386 16.5943C3.01609 16.1475 3.20177 15.6087 3.64859 15.391C4.0954 15.1732 4.63415 15.3589 4.85192 15.8057C6.70388 19.6056 11.2856 21.1847 15.0855 19.3327Z" fill="black"/>
<path fill-rule="evenodd" clip-rule="evenodd" d="M2.07071 19.6681C1.58262 19.5741 1.26311 19.1023 1.35707 18.6142L2.14334 14.5298C2.2373 14.0417 2.70915 13.7222 3.19724 13.8162L7.28161 14.6025C7.7697 14.6964 8.08921 15.1683 7.99525 15.6564C7.90129 16.1445 7.42944 16.464 6.94134 16.37L3.74075 15.7539L3.12462 18.9545C3.03066 19.4426 2.55881 19.7621 2.07071 19.6681Z" fill="black"/>
</g>
<defs>
<clipPath id="clip0_901_26462">
<rect width="24" height="24" fill="white"/>
</clipPath>
</defs>
</svg>
