<svg width="24" height="24" viewBox="0 0 24 24" fill="none" xmlns="http://www.w3.org/2000/svg">
<path fill-rule="evenodd" clip-rule="evenodd" d="M10.6843 1.60938C9.8321 1.60938 9.09668 2.20701 8.92237 3.0412L8.80811 3.58803C8.57482 4.70449 7.41735 5.36525 6.33735 4.99851L5.81988 4.82279C5.00688 4.54672 4.11207 4.88328 3.68254 5.62672L2.34431 7.94293C1.91787 8.68102 2.06762 9.61703 2.70306 10.1852L3.11845 10.5566C3.96817 11.3164 3.96228 12.6482 3.10589 13.4005L2.692 13.7641C2.04707 14.3306 1.89191 15.2736 2.32135 16.0169L3.6602 18.3342C4.08635 19.0718 4.97119 19.4096 5.78049 19.1438L6.34769 18.9575C7.42411 18.6039 8.56878 19.265 8.80046 20.3741L8.92241 20.9578C9.09668 21.7921 9.83212 22.3897 10.6844 22.3897H13.3618C14.2203 22.3897 14.9593 21.7835 15.1271 20.9416L15.2343 20.4038C15.4572 19.2859 16.6073 18.6145 17.6903 18.97L18.2202 19.144C19.0295 19.4097 19.9143 19.0717 20.3403 18.3341L21.6788 16.0168C22.1081 15.2736 21.9529 14.3306 21.3081 13.7641L20.8941 13.4005C20.0377 12.6482 20.0318 11.3164 20.8815 10.5566L21.2969 10.1852C21.9324 9.61703 22.0821 8.68102 21.6557 7.94293L20.3174 5.62664C19.8879 4.88326 18.9932 4.54668 18.1802 4.82267L17.701 4.98536C16.6144 5.35425 15.4512 4.68308 15.2269 3.55771L15.1271 3.05743C14.9593 2.21556 14.2203 1.60938 13.3619 1.60938H10.6843ZM8.29201 11.9991C8.29201 9.95129 9.9521 8.2912 11.9999 8.2912C14.0477 8.2912 15.7078 9.95129 15.7078 11.9991C15.7078 14.0469 14.0477 15.707 11.9999 15.707C9.9521 15.707 8.29201 14.0469 8.29201 11.9991Z" fill="black"/>
</svg>
