<svg width="21" height="20" viewBox="0 0 21 20" fill="none" xmlns="http://www.w3.org/2000/svg">
<path fill-rule="evenodd" clip-rule="evenodd" d="M3.89495 3.24707H4.87258V4.4596C4.87258 5.33703 5.58387 6.04833 6.4613 6.04833H14.0382C14.9156 6.04833 15.6269 5.33703 15.6269 4.4596V3.24707H16.6047C17.0434 3.24707 17.3991 3.60272 17.3991 4.04143V17.5456C17.3991 17.9843 17.0434 18.3399 16.6047 18.3399H3.89495C3.45623 18.3399 3.10059 17.9843 3.10059 17.5456V4.04143C3.10059 3.60272 3.45623 3.24707 3.89495 3.24707ZM6.63649 7.86583C6.19777 7.86583 5.84213 8.22147 5.84213 8.66019C5.84213 9.0989 6.19777 9.45455 6.63649 9.45455H9.81393C10.2526 9.45455 10.6083 9.0989 10.6083 8.66019C10.6083 8.22147 10.2526 7.86583 9.81393 7.86583H6.63649ZM5.84216 11.8575C5.84216 11.4188 6.19781 11.0632 6.63652 11.0632H13.863C14.3017 11.0632 14.6573 11.4188 14.6573 11.8575C14.6573 12.2962 14.3017 12.6519 13.863 12.6519H6.63652C6.19781 12.6519 5.84216 12.2962 5.84216 11.8575ZM6.63652 14.2606C6.19781 14.2606 5.84216 14.6162 5.84216 15.055C5.84216 15.4937 6.19781 15.8493 6.63652 15.8493H13.863C14.3017 15.8493 14.6573 15.4937 14.6573 15.055C14.6573 14.6162 14.3017 14.2606 13.863 14.2606H6.63652Z" fill="#E9EAED"/>
<rect x="6.27832" y="1.65918" width="7.94361" height="3.17744" rx="0.794361" fill="#E9EAED"/>
</svg>
