<svg width="24" height="24" viewBox="0 0 24 24" fill="none" xmlns="http://www.w3.org/2000/svg">
<path fill-rule="evenodd" clip-rule="evenodd" d="M8.25 2.875C8.25 2.32272 8.69772 1.875 9.25 1.875H15.25C15.8023 1.875 16.25 2.32272 16.25 2.875C16.25 3.42728 15.8023 3.875 15.25 3.875H9.25C8.69772 3.875 8.25 3.42728 8.25 2.875Z" fill="#17181A"/>
<path fill-rule="evenodd" clip-rule="evenodd" d="M12 22.25C16.5046 22.25 20.1562 18.5983 20.1562 14.0938C20.1562 9.58918 16.5046 5.9375 12 5.9375C7.49543 5.9375 3.84375 9.58918 3.84375 14.0938C3.84375 18.5983 7.49543 22.25 12 22.25ZM11.9178 13.0116C11.5273 13.4022 11.5273 14.0353 11.9178 14.4259C12.3083 14.8164 12.9415 14.8164 13.332 14.4259L16.3955 11.3624C16.786 10.9719 16.786 10.3387 16.3955 9.94817C16.005 9.55764 15.3718 9.55764 14.9813 9.94817L11.9178 13.0116Z" fill="#17181A"/>
</svg>
