<svg width="44" height="44" viewBox="0 0 44 44" fill="none" xmlns="http://www.w3.org/2000/svg">
<g clip-path="url(#clip0_371_8595)">
<rect width="44" height="44" rx="22" fill="#2E3032"/>
<path d="M11.6172 12.4837C13.6557 11.8393 15.9832 11.5635 17.8625 12.2343C19.0149 10.6052 21.078 9.49312 23.1165 8.84873C24.6324 8.36958 26.315 8.09067 27.8519 8.26026C28.7241 8.36401 29.4709 8.94432 29.7386 9.79109L33.4661 21.5831C33.8957 22.9422 32.9375 24.3489 31.5146 24.4307C30.4075 24.4932 29.2839 24.7219 28.2385 25.0524C26.6077 25.5679 24.9583 26.3882 23.7756 27.521C23.2475 28.0329 22.5366 28.2576 21.8207 28.1389C20.1984 27.8813 18.3805 28.1685 16.7497 28.684C15.7043 29.0145 14.6534 29.4731 13.7115 30.0583C12.5034 30.8197 10.9108 30.2192 10.4779 28.8498L6.75037 17.0577C6.48271 16.211 6.76033 15.3068 7.41442 14.7206C8.56417 13.7017 10.1014 12.9629 11.6172 12.4837ZM12.165 26.9482C12.3732 27.6068 13.1315 27.896 13.7433 27.5761C14.4811 27.1819 15.2766 26.8614 16.0816 26.607C17.8588 26.0452 20.6348 25.9151 22.3269 26.3576L18.5234 14.3251C16.8313 13.8826 14.0553 14.0127 12.2781 14.5745C11.3163 14.8785 10.3948 15.2733 9.54806 15.7594C9.10022 16.016 8.88028 16.5569 9.03559 17.0483L12.165 26.9482Z" fill="#F7F7F8"/>
<path d="M17.4489 18.1269C17.7834 18.0212 18.0205 17.7163 18.0193 17.3487C18.0263 16.8981 17.6542 16.5212 17.2069 16.5247C15.4317 16.5109 13.2985 17.0012 11.4548 17.8255C11.0428 18.0132 10.8514 18.4991 11.0392 18.9112C11.2269 19.3233 11.7128 19.5147 12.1249 19.3269C13.7557 18.593 15.6556 18.1649 17.1985 18.1716C17.2855 18.1556 17.3757 18.1501 17.4489 18.1269Z" fill="#F7F7F8"/>
<path d="M18.3273 20.9062C18.6618 20.8005 18.8989 20.4956 18.8977 20.128C18.9047 19.6774 18.5326 19.3005 18.0853 19.304C16.3206 19.2869 14.1769 19.7805 12.3333 20.6048C11.9212 20.7925 11.7298 21.2784 11.9176 21.6905C12.1053 22.1026 12.5913 22.294 13.0033 22.1062C14.6341 21.3723 16.534 20.9442 18.0769 20.9509C18.1672 20.9454 18.2541 20.9294 18.3273 20.9062Z" fill="#F7F7F8"/>
<path d="M19.2062 23.689C19.5407 23.5832 19.7778 23.2783 19.7766 22.9107C19.7836 22.4601 19.4115 22.0832 18.9642 22.0867C17.1995 22.0696 15.0558 22.5632 13.2122 23.3875C12.8001 23.5752 12.6087 24.0612 12.7965 24.4732C12.9842 24.8853 13.4669 25.0662 13.8823 24.8889C15.513 24.155 17.4129 23.7269 18.9558 23.7336C19.0461 23.7281 19.133 23.7121 19.2062 23.689Z" fill="#F7F7F8"/>
<path d="M38.2595 22.0437C36.7096 18.7317 32.7681 17.3035 29.4563 18.8533C26.1446 20.4031 24.716 24.3445 26.2659 27.6565C26.9103 29.0333 28.0014 30.0977 29.2555 30.7448L27.4836 35.5675C27.3283 35.9971 27.5586 36.4892 27.988 36.6451C28.418 36.8007 28.9098 36.5706 29.0659 36.1407L30.8005 31.3028C32.1776 31.6094 33.6921 31.4913 35.0692 30.8469C38.3809 29.297 39.8095 25.3556 38.2595 22.0437ZM36.7603 22.7453C37.9228 25.2292 36.8517 28.185 34.3675 29.3477C31.8834 30.5102 28.9276 29.4388 27.7651 26.9549C26.6027 24.4709 27.6738 21.5151 30.1579 20.3525C32.6421 19.1899 35.5979 20.2613 36.7603 22.7453Z" fill="#FF774C"/>
<rect width="44" height="44" rx="22" fill="#2E3032"/>
<path d="M6.01188 17.8102C5.82305 17.1516 6.00719 16.4341 6.53911 16.0024C9.5664 13.5454 13.5898 12.4953 17.4312 13.2564C17.5839 13.2866 17.7422 13.2412 17.8556 13.1347C20.71 10.4536 24.6785 9.21222 28.5478 9.69163C29.2277 9.77587 29.7641 10.2868 29.9529 10.9453L33.6794 23.9413C34.0352 25.1818 33.0373 26.4161 31.7519 26.5304C28.5553 26.8145 25 27.9794 23.2425 30.1522C22.9214 30.5493 22.3633 30.7094 21.8791 30.547C19.2919 29.679 15.6265 30.552 12.7505 31.9898C11.5962 32.5669 10.0942 32.0468 9.73844 30.8062L6.01188 17.8102Z" fill="#FF774C"/>
<path d="M6.37994 16.6551C6.19111 15.9966 6.3749 15.2785 6.90888 14.8494C9.76375 12.555 13.5425 11.5758 17.1526 12.2869C17.3053 12.3169 17.4635 12.2716 17.5771 12.1652C20.2618 9.64905 23.9853 8.47712 27.6222 8.91005C28.3025 8.99103 28.8388 9.50257 29.0276 10.1611L32.4966 22.2587C32.8523 23.4992 31.8534 24.7348 30.569 24.8598C27.602 25.1485 24.3415 26.2356 22.6948 28.2338C22.3701 28.628 21.8115 28.7882 21.3259 28.6303C18.9201 27.8483 15.5502 28.6337 12.8675 29.9468C11.7084 30.5141 10.2046 29.9933 9.8489 28.7528L6.37994 16.6551Z" fill="#E9E0BE"/>
<path d="M15.9416 16.4899V16.4899C14.1225 16.0921 12.2249 16.6284 10.883 17.9194L10.8518 17.9494" stroke="#CFB996" stroke-width="1.47948" stroke-linecap="round"/>
<path d="M26.756 13.3888V13.3888C24.9369 12.9911 23.0393 13.5273 21.6974 14.8183L21.6663 14.8483" stroke="#CFB996" stroke-width="1.47948" stroke-linecap="round"/>
<path d="M16.9318 19.9425V19.9425C15.1127 19.5448 13.2151 20.081 11.8732 21.372L11.8421 21.402" stroke="#CFB996" stroke-width="1.47948" stroke-linecap="round"/>
<path d="M27.7458 16.8415V16.8415C25.9267 16.4437 24.0291 16.9799 22.6872 18.271L22.656 18.3009" stroke="#CFB996" stroke-width="1.47948" stroke-linecap="round"/>
<path d="M17.9216 23.3947V23.3947C16.1025 22.9969 14.2048 23.5332 12.8629 24.8242L12.8318 24.8541" stroke="#CFB996" stroke-width="1.47948" stroke-linecap="round"/>
<path d="M28.7355 20.2936V20.2936C26.9164 19.8958 25.0188 20.4321 23.6769 21.7231L23.6458 21.7531" stroke="#CFB996" stroke-width="1.47948" stroke-linecap="round"/>
<circle cx="5.7362" cy="5.7362" r="5.7362" transform="matrix(0.996684 0.0813728 0.0813728 -0.996684 26.4165 29.1069)" fill="#BDDEF5"/>
<mask id="mask0_371_8595" style="mask-type:alpha" maskUnits="userSpaceOnUse" x="26" y="18" width="13" height="12">
<circle cx="5.7362" cy="5.7362" r="5.7362" transform="matrix(0.996684 0.0813728 0.0813728 -0.996684 26.4165 29.1074)" fill="#BDDEF5"/>
</mask>
<g mask="url(#mask0_371_8595)">
<rect opacity="0.5" x="23.2568" y="26.7432" width="16.3552" height="3.84117" transform="rotate(-32.5288 23.2568 26.7432)" fill="white"/>
</g>
<path d="M38.404 21.6597C37.1577 18.3106 33.4323 16.6061 30.0835 17.8523C26.7347 19.0984 25.0298 22.8237 26.2761 26.1728C26.7941 27.565 27.7723 28.6885 28.9423 29.4184L26.833 33.9748C26.6476 34.3809 26.8327 34.8784 27.2385 35.0645C27.645 35.2502 28.1423 35.0652 28.3285 34.6589L30.4027 30.0848C31.7196 30.493 33.2041 30.4983 34.5966 29.9802C37.9454 28.734 39.6503 25.0087 38.404 21.6597ZM36.888 22.2238C37.8227 24.7356 36.5444 27.5293 34.0324 28.4642C31.5204 29.399 28.7267 28.1204 27.7921 25.6086C26.8574 23.0969 28.1357 20.3031 30.6476 19.3682C33.1596 18.4335 35.9533 19.712 36.888 22.2238Z" fill="#717478"/>
</g>
<defs>
<clipPath id="clip0_371_8595">
<rect width="44" height="44" rx="22" fill="white"/>
</clipPath>
</defs>
</svg>
